<?xml version="1.0" encoding="UTF-8"?> <svg xmlns="http://www.w3.org/2000/svg" width="129" height="39" viewBox="0 0 129 39" fill="none"> <path d="M41.1418 2.76471C41.1418 2.582 41.1864 2.41544 41.2755 2.26504C41.3646 2.11464 41.4844 1.99488 41.6348 1.90575C41.7852 1.81662 41.9518 1.77206 42.1345 1.77206C42.2927 1.77206 42.4386 1.80604 42.5723 1.874C42.7071 1.94196 42.8185 2.03498 42.9065 2.15307C42.9945 2.27005 43.0491 2.40263 43.0703 2.5508H42.6659C42.6436 2.43605 42.5818 2.34247 42.4804 2.27005C42.379 2.19652 42.2637 2.15976 42.1345 2.15976C42.0231 2.15976 41.9217 2.18705 41.8303 2.24164C41.739 2.29623 41.666 2.36921 41.6114 2.46056C41.5568 2.55192 41.5295 2.6533 41.5295 2.76471C41.5295 2.87611 41.5568 2.9775 41.6114 3.06885C41.666 3.1602 41.739 3.23318 41.8303 3.28777C41.9217 3.34236 42.0231 3.36965 42.1345 3.36965C42.2637 3.36965 42.3729 3.33344 42.462 3.26103C42.5522 3.1875 42.6091 3.09336 42.6325 2.97861H43.0369C43.0157 3.12678 42.9639 3.25992 42.8815 3.37801C42.799 3.49499 42.6932 3.58746 42.5639 3.65541C42.4358 3.72337 42.2927 3.75735 42.1345 3.75735C41.9518 3.75735 41.7852 3.71279 41.6348 3.62366C41.4844 3.53454 41.3646 3.41477 41.2755 3.26437C41.1864 3.11397 41.1418 2.94742 41.1418 2.76471ZM42.1178 4.52941C41.8749 4.52941 41.6465 4.48373 41.4326 4.39238C41.2198 4.30102 41.0321 4.17458 40.8694 4.01303C40.7079 3.85038 40.5809 3.66266 40.4884 3.44987C40.3971 3.23708 40.3519 3.00869 40.353 2.76471C40.3542 2.52072 40.4004 2.29234 40.4918 2.07955C40.5842 1.86676 40.7112 1.67959 40.8728 1.51805C41.0343 1.35539 41.2215 1.22839 41.4343 1.13703C41.6471 1.04568 41.8749 1 42.1178 1C42.3617 1 42.5901 1.04568 42.8029 1.13703C43.0168 1.22839 43.204 1.35539 43.3644 1.51805C43.526 1.67959 43.6524 1.86676 43.7438 2.07955C43.8351 2.29234 43.8813 2.52072 43.8825 2.76471C43.8836 3.00869 43.8385 3.23708 43.7471 3.44987C43.6557 3.66266 43.5293 3.85038 43.3678 4.01303C43.2062 4.17458 43.0185 4.30102 42.8046 4.39238C42.5907 4.48373 42.3617 4.52941 42.1178 4.52941ZM42.1178 4.14171C42.3083 4.14171 42.4871 4.10606 42.6542 4.03476C42.8213 3.96346 42.9678 3.86486 43.0937 3.73897C43.2196 3.61308 43.3182 3.46713 43.3895 3.30114C43.4608 3.13402 43.4959 2.95577 43.4948 2.76638C43.4936 2.57587 43.4574 2.39706 43.3861 2.22995C43.3148 2.06283 43.2162 1.91633 43.0903 1.79044C42.9645 1.66455 42.8185 1.56595 42.6525 1.49465C42.4865 1.42335 42.3083 1.3877 42.1178 1.3877C41.9284 1.3877 41.7507 1.42335 41.5847 1.49465C41.4187 1.56595 41.2727 1.66511 41.1468 1.79211C41.0209 1.918 40.9218 2.06451 40.8494 2.23162C40.7781 2.39762 40.7419 2.57587 40.7407 2.76638C40.7396 2.95466 40.7747 3.13235 40.846 3.29947C40.9173 3.46546 41.0159 3.61141 41.1418 3.7373C41.2688 3.86319 41.4153 3.96234 41.5813 4.03476C41.7484 4.10606 41.9272 4.14171 42.1178 4.14171Z" fill="#111111"></path> <mask id="path-2-outside-1_31_3393" maskUnits="userSpaceOnUse" x="0" y="0" width="40" height="15" fill="black"> <rect fill="white" width="40" height="15"></rect> <path d="M1 13.706V1.16332H2.86366V3.12312H3.02714C3.28871 2.45352 3.71103 1.93363 4.29411 1.56344C4.87718 1.18781 5.57742 1 6.39482 1C7.22311 1 7.91245 1.18781 8.46283 1.56344C9.01866 1.93363 9.45188 2.45352 9.76249 3.12312H9.89327C10.2148 2.47529 10.697 1.96085 11.3401 1.57977C11.9831 1.19326 12.7542 1 13.6533 1C14.7759 1 15.6941 1.35113 16.4079 2.05339C17.1218 2.75021 17.4787 3.83626 17.4787 5.31156V13.706H15.5497V5.31156C15.5497 4.3861 15.2963 3.72466 14.7895 3.32726C14.2827 2.92986 13.686 2.73116 12.9994 2.73116C12.1166 2.73116 11.4327 2.99791 10.9477 3.53141C10.4627 4.05946 10.2202 4.72906 10.2202 5.5402V13.706H8.25848V5.11558C8.25848 4.40243 8.02688 3.8281 7.56369 3.39259C7.1005 2.95163 6.5038 2.73116 5.77359 2.73116C5.27226 2.73116 4.80362 2.86453 4.36767 3.13128C3.93718 3.39803 3.58842 3.76822 3.32141 4.24183C3.05984 4.71001 2.92906 5.25167 2.92906 5.86683V13.706H1Z"></path> <path d="M27.8428 3.97236L26.1099 4.46231C26.0009 4.17379 25.8402 3.89343 25.6276 3.62123C25.4206 3.34359 25.1372 3.11495 24.7775 2.9353C24.4179 2.75565 23.9574 2.66583 23.3961 2.66583C22.6278 2.66583 21.9875 2.84276 21.4753 3.19661C20.9685 3.54502 20.7151 3.98869 20.7151 4.52764C20.7151 5.0067 20.8895 5.38505 21.2382 5.66269C21.587 5.94033 22.1319 6.17169 22.873 6.35678L24.7367 6.81407C25.8592 7.08626 26.6957 7.50272 27.2461 8.06344C27.7965 8.61872 28.0716 9.33459 28.0716 10.2111C28.0716 10.9296 27.8646 11.572 27.4504 12.1382C27.0417 12.7044 26.4696 13.1508 25.7339 13.4774C24.9982 13.804 24.1427 13.9673 23.1673 13.9673C21.8867 13.9673 20.8268 13.6897 19.9876 13.1344C19.1484 12.5791 18.6171 11.768 18.3937 10.701L20.2246 10.2437C20.399 10.9188 20.7287 11.425 21.2137 11.7626C21.7041 12.1001 22.3444 12.2688 23.1346 12.2688C24.0337 12.2688 24.7476 12.0783 25.2762 11.6972C25.8102 11.3107 26.0772 10.848 26.0772 10.309C26.0772 9.87353 25.9246 9.50879 25.6195 9.21482C25.3143 8.91541 24.8457 8.69221 24.2135 8.54523L22.121 8.05528C20.9712 7.78308 20.1266 7.36118 19.5871 6.78957C19.053 6.21252 18.786 5.49121 18.786 4.62563C18.786 3.91792 18.9849 3.29188 19.3827 2.74749C19.786 2.2031 20.3336 1.77575 21.0257 1.46545C21.7232 1.15515 22.5134 1 23.3961 1C24.6386 1 25.614 1.27219 26.3224 1.81658C27.0363 2.36097 27.5431 3.07956 27.8428 3.97236Z"></path> <path d="M33.3044 14C32.5088 14 31.7867 13.8503 31.1383 13.5509C30.4898 13.246 29.9748 12.8078 29.5934 12.2362C29.2119 11.6591 29.0212 10.9623 29.0212 10.1457C29.0212 9.42714 29.1629 8.84464 29.4462 8.39824C29.7296 7.9464 30.1083 7.59255 30.5824 7.33668C31.0565 7.08082 31.5796 6.89028 32.1518 6.76508C32.7295 6.63442 33.3098 6.53099 33.8929 6.45477C34.6558 6.35678 35.2743 6.28329 35.7484 6.2343C36.2279 6.17986 36.5767 6.09003 36.7946 5.96482C37.0181 5.83961 37.1298 5.62186 37.1298 5.31156V5.24623C37.1298 4.44054 36.9091 3.81449 36.4677 3.36809C36.0317 2.92169 35.3696 2.69849 34.4814 2.69849C33.5605 2.69849 32.8384 2.89992 32.3153 3.30276C31.7922 3.70561 31.4243 4.13568 31.2118 4.59296L29.3809 3.9397C29.7078 3.17755 30.1438 2.58417 30.6887 2.15955C31.2391 1.72948 31.8385 1.43007 32.487 1.26131C33.1409 1.0871 33.7839 1 34.416 1C34.8193 1 35.2825 1.04899 35.8056 1.14698C36.3342 1.23953 36.8437 1.43279 37.3341 1.72676C37.83 2.02073 38.2414 2.46441 38.5684 3.05779C38.8953 3.65117 39.0588 4.44598 39.0588 5.44221V13.706H37.1298V12.0075H37.0317C36.9009 12.2797 36.6829 12.571 36.3778 12.8813C36.0726 13.1916 35.6666 13.4556 35.1598 13.6734C34.6531 13.8911 34.0346 14 33.3044 14ZM33.5986 12.2688C34.3615 12.2688 35.0045 12.1191 35.5277 11.8197C36.0563 11.5203 36.4541 11.1338 36.7211 10.6602C36.9935 10.1866 37.1298 9.68844 37.1298 9.16583V7.40201C37.048 7.5 36.8682 7.58982 36.5903 7.67148C36.3178 7.7477 36.0018 7.81575 35.6421 7.87563C35.2879 7.93007 34.9419 7.97906 34.604 8.02261C34.2716 8.06072 34.0019 8.09338 33.7948 8.1206C33.2935 8.18593 32.8248 8.29209 32.3889 8.43907C31.9584 8.58061 31.6096 8.79564 31.3426 9.08417C31.081 9.36725 30.9503 9.75377 30.9503 10.2437C30.9503 10.9133 31.1982 11.4196 31.6941 11.7626C32.1954 12.1001 32.8303 12.2688 33.5986 12.2688Z"></path> </mask> <path d="M1 13.706V1.16332H2.86366V3.12312H3.02714C3.28871 2.45352 3.71103 1.93363 4.29411 1.56344C4.87718 1.18781 5.57742 1 6.39482 1C7.22311 1 7.91245 1.18781 8.46283 1.56344C9.01866 1.93363 9.45188 2.45352 9.76249 3.12312H9.89327C10.2148 2.47529 10.697 1.96085 11.3401 1.57977C11.9831 1.19326 12.7542 1 13.6533 1C14.7759 1 15.6941 1.35113 16.4079 2.05339C17.1218 2.75021 17.4787 3.83626 17.4787 5.31156V13.706H15.5497V5.31156C15.5497 4.3861 15.2963 3.72466 14.7895 3.32726C14.2827 2.92986 13.686 2.73116 12.9994 2.73116C12.1166 2.73116 11.4327 2.99791 10.9477 3.53141C10.4627 4.05946 10.2202 4.72906 10.2202 5.5402V13.706H8.25848V5.11558C8.25848 4.40243 8.02688 3.8281 7.56369 3.39259C7.1005 2.95163 6.5038 2.73116 5.77359 2.73116C5.27226 2.73116 4.80362 2.86453 4.36767 3.13128C3.93718 3.39803 3.58842 3.76822 3.32141 4.24183C3.05984 4.71001 2.92906 5.25167 2.92906 5.86683V13.706H1Z" fill="#111111"></path> <path d="M27.8428 3.97236L26.1099 4.46231C26.0009 4.17379 25.8402 3.89343 25.6276 3.62123C25.4206 3.34359 25.1372 3.11495 24.7775 2.9353C24.4179 2.75565 23.9574 2.66583 23.3961 2.66583C22.6278 2.66583 21.9875 2.84276 21.4753 3.19661C20.9685 3.54502 20.7151 3.98869 20.7151 4.52764C20.7151 5.0067 20.8895 5.38505 21.2382 5.66269C21.587 5.94033 22.1319 6.17169 22.873 6.35678L24.7367 6.81407C25.8592 7.08626 26.6957 7.50272 27.2461 8.06344C27.7965 8.61872 28.0716 9.33459 28.0716 10.2111C28.0716 10.9296 27.8646 11.572 27.4504 12.1382C27.0417 12.7044 26.4696 13.1508 25.7339 13.4774C24.9982 13.804 24.1427 13.9673 23.1673 13.9673C21.8867 13.9673 20.8268 13.6897 19.9876 13.1344C19.1484 12.5791 18.6171 11.768 18.3937 10.701L20.2246 10.2437C20.399 10.9188 20.7287 11.425 21.2137 11.7626C21.7041 12.1001 22.3444 12.2688 23.1346 12.2688C24.0337 12.2688 24.7476 12.0783 25.2762 11.6972C25.8102 11.3107 26.0772 10.848 26.0772 10.309C26.0772 9.87353 25.9246 9.50879 25.6195 9.21482C25.3143 8.91541 24.8457 8.69221 24.2135 8.54523L22.121 8.05528C20.9712 7.78308 20.1266 7.36118 19.5871 6.78957C19.053 6.21252 18.786 5.49121 18.786 4.62563C18.786 3.91792 18.9849 3.29188 19.3827 2.74749C19.786 2.2031 20.3336 1.77575 21.0257 1.46545C21.7232 1.15515 22.5134 1 23.3961 1C24.6386 1 25.614 1.27219 26.3224 1.81658C27.0363 2.36097 27.5431 3.07956 27.8428 3.97236Z" fill="#111111"></path> <path d="M33.3044 14C32.5088 14 31.7867 13.8503 31.1383 13.5509C30.4898 13.246 29.9748 12.8078 29.5934 12.2362C29.2119 11.6591 29.0212 10.9623 29.0212 10.1457C29.0212 9.42714 29.1629 8.84464 29.4462 8.39824C29.7296 7.9464 30.1083 7.59255 30.5824 7.33668C31.0565 7.08082 31.5796 6.89028 32.1518 6.76508C32.7295 6.63442 33.3098 6.53099 33.8929 6.45477C34.6558 6.35678 35.2743 6.28329 35.7484 6.2343C36.2279 6.17986 36.5767 6.09003 36.7946 5.96482C37.0181 5.83961 37.1298 5.62186 37.1298 5.31156V5.24623C37.1298 4.44054 36.9091 3.81449 36.4677 3.36809C36.0317 2.92169 35.3696 2.69849 34.4814 2.69849C33.5605 2.69849 32.8384 2.89992 32.3153 3.30276C31.7922 3.70561 31.4243 4.13568 31.2118 4.59296L29.3809 3.9397C29.7078 3.17755 30.1438 2.58417 30.6887 2.15955C31.2391 1.72948 31.8385 1.43007 32.487 1.26131C33.1409 1.0871 33.7839 1 34.416 1C34.8193 1 35.2825 1.04899 35.8056 1.14698C36.3342 1.23953 36.8437 1.43279 37.3341 1.72676C37.83 2.02073 38.2414 2.46441 38.5684 3.05779C38.8953 3.65117 39.0588 4.44598 39.0588 5.44221V13.706H37.1298V12.0075H37.0317C36.9009 12.2797 36.6829 12.571 36.3778 12.8813C36.0726 13.1916 35.6666 13.4556 35.1598 13.6734C34.6531 13.8911 34.0346 14 33.3044 14ZM33.5986 12.2688C34.3615 12.2688 35.0045 12.1191 35.5277 11.8197C36.0563 11.5203 36.4541 11.1338 36.7211 10.6602C36.9935 10.1866 37.1298 9.68844 37.1298 9.16583V7.40201C37.048 7.5 36.8682 7.58982 36.5903 7.67148C36.3178 7.7477 36.0018 7.81575 35.6421 7.87563C35.2879 7.93007 34.9419 7.97906 34.604 8.02261C34.2716 8.06072 34.0019 8.09338 33.7948 8.1206C33.2935 8.18593 32.8248 8.29209 32.3889 8.43907C31.9584 8.58061 31.6096 8.79564 31.3426 9.08417C31.081 9.36725 30.9503 9.75377 30.9503 10.2437C30.9503 10.9133 31.1982 11.4196 31.6941 11.7626C32.1954 12.1001 32.8303 12.2688 33.5986 12.2688Z" fill="#111111"></path> <path d="M1 13.706V1.16332H2.86366V3.12312H3.02714C3.28871 2.45352 3.71103 1.93363 4.29411 1.56344C4.87718 1.18781 5.57742 1 6.39482 1C7.22311 1 7.91245 1.18781 8.46283 1.56344C9.01866 1.93363 9.45188 2.45352 9.76249 3.12312H9.89327C10.2148 2.47529 10.697 1.96085 11.3401 1.57977C11.9831 1.19326 12.7542 1 13.6533 1C14.7759 1 15.6941 1.35113 16.4079 2.05339C17.1218 2.75021 17.4787 3.83626 17.4787 5.31156V13.706H15.5497V5.31156C15.5497 4.3861 15.2963 3.72466 14.7895 3.32726C14.2827 2.92986 13.686 2.73116 12.9994 2.73116C12.1166 2.73116 11.4327 2.99791 10.9477 3.53141C10.4627 4.05946 10.2202 4.72906 10.2202 5.5402V13.706H8.25848V5.11558C8.25848 4.40243 8.02688 3.8281 7.56369 3.39259C7.1005 2.95163 6.5038 2.73116 5.77359 2.73116C5.27226 2.73116 4.80362 2.86453 4.36767 3.13128C3.93718 3.39803 3.58842 3.76822 3.32141 4.24183C3.05984 4.71001 2.92906 5.25167 2.92906 5.86683V13.706H1Z" stroke="#111111" stroke-width="0.2" mask="url(#path-2-outside-1_31_3393)"></path> <path d="M27.8428 3.97236L26.1099 4.46231C26.0009 4.17379 25.8402 3.89343 25.6276 3.62123C25.4206 3.34359 25.1372 3.11495 24.7775 2.9353C24.4179 2.75565 23.9574 2.66583 23.3961 2.66583C22.6278 2.66583 21.9875 2.84276 21.4753 3.19661C20.9685 3.54502 20.7151 3.98869 20.7151 4.52764C20.7151 5.0067 20.8895 5.38505 21.2382 5.66269C21.587 5.94033 22.1319 6.17169 22.873 6.35678L24.7367 6.81407C25.8592 7.08626 26.6957 7.50272 27.2461 8.06344C27.7965 8.61872 28.0716 9.33459 28.0716 10.2111C28.0716 10.9296 27.8646 11.572 27.4504 12.1382C27.0417 12.7044 26.4696 13.1508 25.7339 13.4774C24.9982 13.804 24.1427 13.9673 23.1673 13.9673C21.8867 13.9673 20.8268 13.6897 19.9876 13.1344C19.1484 12.5791 18.6171 11.768 18.3937 10.701L20.2246 10.2437C20.399 10.9188 20.7287 11.425 21.2137 11.7626C21.7041 12.1001 22.3444 12.2688 23.1346 12.2688C24.0337 12.2688 24.7476 12.0783 25.2762 11.6972C25.8102 11.3107 26.0772 10.848 26.0772 10.309C26.0772 9.87353 25.9246 9.50879 25.6195 9.21482C25.3143 8.91541 24.8457 8.69221 24.2135 8.54523L22.121 8.05528C20.9712 7.78308 20.1266 7.36118 19.5871 6.78957C19.053 6.21252 18.786 5.49121 18.786 4.62563C18.786 3.91792 18.9849 3.29188 19.3827 2.74749C19.786 2.2031 20.3336 1.77575 21.0257 1.46545C21.7232 1.15515 22.5134 1 23.3961 1C24.6386 1 25.614 1.27219 26.3224 1.81658C27.0363 2.36097 27.5431 3.07956 27.8428 3.97236Z" stroke="#111111" stroke-width="0.2" mask="url(#path-2-outside-1_31_3393)"></path> <path d="M33.3044 14C32.5088 14 31.7867 13.8503 31.1383 13.5509C30.4898 13.246 29.9748 12.8078 29.5934 12.2362C29.2119 11.6591 29.0212 10.9623 29.0212 10.1457C29.0212 9.42714 29.1629 8.84464 29.4462 8.39824C29.7296 7.9464 30.1083 7.59255 30.5824 7.33668C31.0565 7.08082 31.5796 6.89028 32.1518 6.76508C32.7295 6.63442 33.3098 6.53099 33.8929 6.45477C34.6558 6.35678 35.2743 6.28329 35.7484 6.2343C36.2279 6.17986 36.5767 6.09003 36.7946 5.96482C37.0181 5.83961 37.1298 5.62186 37.1298 5.31156V5.24623C37.1298 4.44054 36.9091 3.81449 36.4677 3.36809C36.0317 2.92169 35.3696 2.69849 34.4814 2.69849C33.5605 2.69849 32.8384 2.89992 32.3153 3.30276C31.7922 3.70561 31.4243 4.13568 31.2118 4.59296L29.3809 3.9397C29.7078 3.17755 30.1438 2.58417 30.6887 2.15955C31.2391 1.72948 31.8385 1.43007 32.487 1.26131C33.1409 1.0871 33.7839 1 34.416 1C34.8193 1 35.2825 1.04899 35.8056 1.14698C36.3342 1.23953 36.8437 1.43279 37.3341 1.72676C37.83 2.02073 38.2414 2.46441 38.5684 3.05779C38.8953 3.65117 39.0588 4.44598 39.0588 5.44221V13.706H37.1298V12.0075H37.0317C36.9009 12.2797 36.6829 12.571 36.3778 12.8813C36.0726 13.1916 35.6666 13.4556 35.1598 13.6734C34.6531 13.8911 34.0346 14 33.3044 14ZM33.5986 12.2688C34.3615 12.2688 35.0045 12.1191 35.5277 11.8197C36.0563 11.5203 36.4541 11.1338 36.7211 10.6602C36.9935 10.1866 37.1298 9.68844 37.1298 9.16583V7.40201C37.048 7.5 36.8682 7.58982 36.5903 7.67148C36.3178 7.7477 36.0018 7.81575 35.6421 7.87563C35.2879 7.93007 34.9419 7.97906 34.604 8.02261C34.2716 8.06072 34.0019 8.09338 33.7948 8.1206C33.2935 8.18593 32.8248 8.29209 32.3889 8.43907C31.9584 8.58061 31.6096 8.79564 31.3426 9.08417C31.081 9.36725 30.9503 9.75377 30.9503 10.2437C30.9503 10.9133 31.1982 11.4196 31.6941 11.7626C32.1954 12.1001 32.8303 12.2688 33.5986 12.2688Z" stroke="#111111" stroke-width="0.2" mask="url(#path-2-outside-1_31_3393)"></path> <mask id="path-3-outside-2_31_3393" maskUnits="userSpaceOnUse" x="0" y="15" width="70" height="24" fill="black"> <rect fill="white" y="15" width="70" height="24"></rect> <path d="M6.27353 33.3412C5.23824 33.3412 4.32426 33.0797 3.53162 32.5566C2.73897 32.0282 2.11887 31.2841 1.67132 30.3243C1.22377 29.3591 1 28.2186 1 26.9029C1 25.598 1.22377 24.4657 1.67132 23.5059C2.11887 22.5461 2.74167 21.8047 3.53971 21.2816C4.33775 20.7586 5.25981 20.4971 6.30588 20.4971C7.11471 20.4971 7.75368 20.6319 8.22279 20.9015C8.6973 21.1657 9.05858 21.4676 9.30662 21.8074C9.56005 22.1417 9.75686 22.4167 9.89706 22.6324H10.0588V16.5176H11.9677V33.0824H10.1235V31.1735H9.89706C9.75686 31.4 9.55736 31.6858 9.29853 32.0309C9.03971 32.3706 8.67034 32.6752 8.19044 32.9449C7.71054 33.2091 7.07157 33.3412 6.27353 33.3412ZM6.53235 31.6265C7.29804 31.6265 7.9451 31.427 8.47353 31.0279C9.00196 30.6235 9.40368 30.0654 9.67868 29.3537C9.95368 28.6365 10.0912 27.8088 10.0912 26.8706C10.0912 25.9431 9.95638 25.1316 9.68677 24.436C9.41716 23.735 9.01814 23.1904 8.48971 22.8022C7.96127 22.4086 7.30883 22.2118 6.53235 22.2118C5.72353 22.2118 5.04951 22.4194 4.51029 22.8346C3.97647 23.2444 3.57475 23.8025 3.30515 24.5088C3.04093 25.2098 2.90883 25.9971 2.90883 26.8706C2.90883 27.7549 3.04363 28.5583 3.31324 29.2809C3.58824 29.998 3.99265 30.5696 4.52647 30.9956C5.06569 31.4162 5.73432 31.6265 6.53235 31.6265Z"></path> <path d="M19.7912 33.3412C18.5941 33.3412 17.5615 33.077 16.6934 32.5485C15.8306 32.0147 15.1647 31.2706 14.6956 30.3162C14.2319 29.3564 14 28.2402 14 26.9676C14 25.6951 14.2319 24.5735 14.6956 23.6029C15.1647 22.627 15.8172 21.8667 16.6529 21.3221C17.4941 20.7721 18.4755 20.4971 19.5971 20.4971C20.2441 20.4971 20.8831 20.6049 21.514 20.8206C22.1449 21.0363 22.7191 21.3868 23.2368 21.8721C23.7544 22.352 24.1669 22.9882 24.4743 23.7809C24.7816 24.5735 24.9353 25.5495 24.9353 26.7088V27.5176H15.3588V25.8676H22.9941C22.9941 25.1667 22.8539 24.5412 22.5735 23.9912C22.2985 23.4412 21.9049 23.0071 21.3927 22.689C20.8858 22.3708 20.2873 22.2118 19.5971 22.2118C18.8368 22.2118 18.1789 22.4005 17.6235 22.7779C17.0735 23.15 16.6502 23.6353 16.3537 24.2338C16.0571 24.8324 15.9088 25.474 15.9088 26.1588V27.2588C15.9088 28.1971 16.0706 28.9924 16.3941 29.6449C16.723 30.2919 17.1787 30.7853 17.761 31.125C18.3434 31.4593 19.0201 31.6265 19.7912 31.6265C20.2926 31.6265 20.7456 31.5564 21.15 31.4162C21.5598 31.2706 21.913 31.0549 22.2096 30.7691C22.5061 30.4779 22.7353 30.1167 22.8971 29.6853L24.7412 30.2029C24.5471 30.8284 24.2208 31.3784 23.7625 31.8529C23.3042 32.3221 22.738 32.6887 22.064 32.9529C21.39 33.2118 20.6324 33.3412 19.7912 33.3412Z"></path> <path d="M35.2735 23.4412L33.5588 23.9265C33.451 23.6407 33.2919 23.363 33.0816 23.0934C32.8767 22.8184 32.5963 22.5919 32.2404 22.414C31.8846 22.236 31.4289 22.1471 30.8735 22.1471C30.1132 22.1471 29.4797 22.3223 28.9728 22.6728C28.4713 23.0179 28.2206 23.4574 28.2206 23.9912C28.2206 24.4657 28.3931 24.8404 28.7382 25.1154C29.0833 25.3904 29.6225 25.6196 30.3559 25.8029L32.2 26.2559C33.3108 26.5255 34.1385 26.938 34.6831 27.4934C35.2277 28.0434 35.5 28.7525 35.5 29.6206C35.5 30.3324 35.2951 30.9686 34.8853 31.5294C34.4809 32.0902 33.9147 32.5324 33.1868 32.8559C32.4588 33.1794 31.6123 33.3412 30.6471 33.3412C29.3799 33.3412 28.3311 33.0662 27.5007 32.5162C26.6703 31.9662 26.1446 31.1627 25.9235 30.1059L27.7353 29.6529C27.9078 30.3216 28.2341 30.823 28.714 31.1574C29.1993 31.4917 29.8328 31.6588 30.6147 31.6588C31.5044 31.6588 32.2108 31.4701 32.7338 31.0926C33.2622 30.7098 33.5265 30.2515 33.5265 29.7177C33.5265 29.2863 33.3755 28.925 33.0735 28.6338C32.7716 28.3373 32.3078 28.1162 31.6823 27.9706L29.6118 27.4853C28.474 27.2157 27.6382 26.7978 27.1044 26.2316C26.576 25.6601 26.3118 24.9456 26.3118 24.0882C26.3118 23.3873 26.5086 22.7672 26.9022 22.2279C27.3012 21.6887 27.8431 21.2654 28.5279 20.9581C29.2181 20.6507 30 20.4971 30.8735 20.4971C32.1029 20.4971 33.0681 20.7667 33.7691 21.3059C34.4755 21.8451 34.977 22.5569 35.2735 23.4412Z"></path> <path d="M37.1706 33.0824V20.6588H39.0794V33.0824H37.1706ZM38.1412 18.5882C37.7691 18.5882 37.4483 18.4615 37.1787 18.2081C36.9145 17.9547 36.7824 17.65 36.7824 17.2941C36.7824 16.9382 36.9145 16.6336 37.1787 16.3801C37.4483 16.1267 37.7691 16 38.1412 16C38.5132 16 38.8314 16.1267 39.0956 16.3801C39.3652 16.6336 39.5 16.9382 39.5 17.2941C39.5 17.65 39.3652 17.9547 39.0956 18.2081C38.8314 18.4615 38.5132 18.5882 38.1412 18.5882Z"></path> <path d="M46.6294 38C45.7074 38 44.9147 37.8814 44.2515 37.6441C43.5882 37.4123 43.0355 37.1049 42.5934 36.7221C42.1566 36.3446 41.8088 35.9402 41.55 35.5088L43.0706 34.4412C43.2431 34.6677 43.4615 34.9265 43.7257 35.2176C43.99 35.5142 44.3512 35.7703 44.8096 35.986C45.2733 36.2071 45.8799 36.3177 46.6294 36.3177C47.6324 36.3177 48.4601 36.075 49.1125 35.5897C49.765 35.1044 50.0912 34.3441 50.0912 33.3088V30.7853H49.9294C49.7892 31.0118 49.5897 31.2922 49.3309 31.6265C49.0775 31.9554 48.7108 32.2493 48.2309 32.5081C47.7564 32.7615 47.1147 32.8882 46.3059 32.8882C45.3029 32.8882 44.4025 32.651 43.6044 32.1765C42.8118 31.702 42.1836 31.0118 41.7199 30.1059C41.2615 29.2 41.0324 28.1 41.0324 26.8059C41.0324 25.5333 41.2561 24.4252 41.7037 23.4816C42.1512 22.5326 42.774 21.7993 43.5721 21.2816C44.3701 20.7586 45.2922 20.4971 46.3382 20.4971C47.1471 20.4971 47.7887 20.6319 48.2632 20.9015C48.7432 21.1657 49.1098 21.4676 49.3632 21.8074C49.6221 22.1417 49.8216 22.4167 49.9618 22.6324H50.1559V20.6588H52V33.4382C52 34.5059 51.7574 35.374 51.2721 36.0427C50.7922 36.7167 50.1451 37.2101 49.3309 37.5228C48.5221 37.8409 47.6216 38 46.6294 38ZM46.5647 31.1735C47.3304 31.1735 47.9775 30.9983 48.5059 30.6478C49.0343 30.2973 49.436 29.7931 49.711 29.1353C49.986 28.4775 50.1235 27.6902 50.1235 26.7735C50.1235 25.8784 49.9887 25.0885 49.7191 24.4037C49.4495 23.7189 49.0505 23.1824 48.5221 22.7941C47.9936 22.4059 47.3412 22.2118 46.5647 22.2118C45.7559 22.2118 45.0819 22.4167 44.5426 22.8265C44.0088 23.2363 43.6071 23.7863 43.3375 24.4765C43.0733 25.1667 42.9412 25.9324 42.9412 26.7735C42.9412 27.6363 43.076 28.3993 43.3456 29.0625C43.6206 29.7203 44.025 30.238 44.5588 30.6154C45.098 30.9875 45.7667 31.1735 46.5647 31.1735Z"></path> <path d="M56.0735 25.6088V33.0824H54.1647V20.6588H56.0088V22.6H56.1706C56.4618 21.9691 56.9039 21.4623 57.4971 21.0794C58.0902 20.6912 58.8559 20.4971 59.7941 20.4971C60.6353 20.4971 61.3713 20.6696 62.0022 21.0147C62.6331 21.3544 63.1238 21.8721 63.4743 22.5676C63.8248 23.2578 64 24.1314 64 25.1882V33.0824H62.0912V25.3177C62.0912 24.3417 61.8377 23.5814 61.3309 23.0368C60.824 22.4868 60.1284 22.2118 59.2441 22.2118C58.6348 22.2118 58.0902 22.3439 57.6103 22.6081C57.1358 22.8723 56.761 23.2578 56.486 23.7647C56.211 24.2716 56.0735 24.8863 56.0735 25.6088Z"></path> <path d="M67.4559 33.2118C67.0569 33.2118 66.7145 33.0689 66.4287 32.7831C66.1429 32.4973 66 32.1549 66 31.7559C66 31.3569 66.1429 31.0145 66.4287 30.7287C66.7145 30.4429 67.0569 30.3 67.4559 30.3C67.8549 30.3 68.1973 30.4429 68.4831 30.7287C68.7689 31.0145 68.9118 31.3569 68.9118 31.7559C68.9118 32.0201 68.8444 32.2627 68.7096 32.4838C68.5801 32.7049 68.4049 32.8828 68.1838 33.0176C67.9681 33.1471 67.7255 33.2118 67.4559 33.2118Z"></path> </mask> <path d="M6.27353 33.3412C5.23824 33.3412 4.32426 33.0797 3.53162 32.5566C2.73897 32.0282 2.11887 31.2841 1.67132 30.3243C1.22377 29.3591 1 28.2186 1 26.9029C1 25.598 1.22377 24.4657 1.67132 23.5059C2.11887 22.5461 2.74167 21.8047 3.53971 21.2816C4.33775 20.7586 5.25981 20.4971 6.30588 20.4971C7.11471 20.4971 7.75368 20.6319 8.22279 20.9015C8.6973 21.1657 9.05858 21.4676 9.30662 21.8074C9.56005 22.1417 9.75686 22.4167 9.89706 22.6324H10.0588V16.5176H11.9677V33.0824H10.1235V31.1735H9.89706C9.75686 31.4 9.55736 31.6858 9.29853 32.0309C9.03971 32.3706 8.67034 32.6752 8.19044 32.9449C7.71054 33.2091 7.07157 33.3412 6.27353 33.3412ZM6.53235 31.6265C7.29804 31.6265 7.9451 31.427 8.47353 31.0279C9.00196 30.6235 9.40368 30.0654 9.67868 29.3537C9.95368 28.6365 10.0912 27.8088 10.0912 26.8706C10.0912 25.9431 9.95638 25.1316 9.68677 24.436C9.41716 23.735 9.01814 23.1904 8.48971 22.8022C7.96127 22.4086 7.30883 22.2118 6.53235 22.2118C5.72353 22.2118 5.04951 22.4194 4.51029 22.8346C3.97647 23.2444 3.57475 23.8025 3.30515 24.5088C3.04093 25.2098 2.90883 25.9971 2.90883 26.8706C2.90883 27.7549 3.04363 28.5583 3.31324 29.2809C3.58824 29.998 3.99265 30.5696 4.52647 30.9956C5.06569 31.4162 5.73432 31.6265 6.53235 31.6265Z" fill="#111111"></path> <path d="M19.7912 33.3412C18.5941 33.3412 17.5615 33.077 16.6934 32.5485C15.8306 32.0147 15.1647 31.2706 14.6956 30.3162C14.2319 29.3564 14 28.2402 14 26.9676C14 25.6951 14.2319 24.5735 14.6956 23.6029C15.1647 22.627 15.8172 21.8667 16.6529 21.3221C17.4941 20.7721 18.4755 20.4971 19.5971 20.4971C20.2441 20.4971 20.8831 20.6049 21.514 20.8206C22.1449 21.0363 22.7191 21.3868 23.2368 21.8721C23.7544 22.352 24.1669 22.9882 24.4743 23.7809C24.7816 24.5735 24.9353 25.5495 24.9353 26.7088V27.5176H15.3588V25.8676H22.9941C22.9941 25.1667 22.8539 24.5412 22.5735 23.9912C22.2985 23.4412 21.9049 23.0071 21.3927 22.689C20.8858 22.3708 20.2873 22.2118 19.5971 22.2118C18.8368 22.2118 18.1789 22.4005 17.6235 22.7779C17.0735 23.15 16.6502 23.6353 16.3537 24.2338C16.0571 24.8324 15.9088 25.474 15.9088 26.1588V27.2588C15.9088 28.1971 16.0706 28.9924 16.3941 29.6449C16.723 30.2919 17.1787 30.7853 17.761 31.125C18.3434 31.4593 19.0201 31.6265 19.7912 31.6265C20.2926 31.6265 20.7456 31.5564 21.15 31.4162C21.5598 31.2706 21.913 31.0549 22.2096 30.7691C22.5061 30.4779 22.7353 30.1167 22.8971 29.6853L24.7412 30.2029C24.5471 30.8284 24.2208 31.3784 23.7625 31.8529C23.3042 32.3221 22.738 32.6887 22.064 32.9529C21.39 33.2118 20.6324 33.3412 19.7912 33.3412Z" fill="#111111"></path> <path d="M35.2735 23.4412L33.5588 23.9265C33.451 23.6407 33.2919 23.363 33.0816 23.0934C32.8767 22.8184 32.5963 22.5919 32.2404 22.414C31.8846 22.236 31.4289 22.1471 30.8735 22.1471C30.1132 22.1471 29.4797 22.3223 28.9728 22.6728C28.4713 23.0179 28.2206 23.4574 28.2206 23.9912C28.2206 24.4657 28.3931 24.8404 28.7382 25.1154C29.0833 25.3904 29.6225 25.6196 30.3559 25.8029L32.2 26.2559C33.3108 26.5255 34.1385 26.938 34.6831 27.4934C35.2277 28.0434 35.5 28.7525 35.5 29.6206C35.5 30.3324 35.2951 30.9686 34.8853 31.5294C34.4809 32.0902 33.9147 32.5324 33.1868 32.8559C32.4588 33.1794 31.6123 33.3412 30.6471 33.3412C29.3799 33.3412 28.3311 33.0662 27.5007 32.5162C26.6703 31.9662 26.1446 31.1627 25.9235 30.1059L27.7353 29.6529C27.9078 30.3216 28.2341 30.823 28.714 31.1574C29.1993 31.4917 29.8328 31.6588 30.6147 31.6588C31.5044 31.6588 32.2108 31.4701 32.7338 31.0926C33.2622 30.7098 33.5265 30.2515 33.5265 29.7177C33.5265 29.2863 33.3755 28.925 33.0735 28.6338C32.7716 28.3373 32.3078 28.1162 31.6823 27.9706L29.6118 27.4853C28.474 27.2157 27.6382 26.7978 27.1044 26.2316C26.576 25.6601 26.3118 24.9456 26.3118 24.0882C26.3118 23.3873 26.5086 22.7672 26.9022 22.2279C27.3012 21.6887 27.8431 21.2654 28.5279 20.9581C29.2181 20.6507 30 20.4971 30.8735 20.4971C32.1029 20.4971 33.0681 20.7667 33.7691 21.3059C34.4755 21.8451 34.977 22.5569 35.2735 23.4412Z" fill="#111111"></path> <path d="M37.1706 33.0824V20.6588H39.0794V33.0824H37.1706ZM38.1412 18.5882C37.7691 18.5882 37.4483 18.4615 37.1787 18.2081C36.9145 17.9547 36.7824 17.65 36.7824 17.2941C36.7824 16.9382 36.9145 16.6336 37.1787 16.3801C37.4483 16.1267 37.7691 16 38.1412 16C38.5132 16 38.8314 16.1267 39.0956 16.3801C39.3652 16.6336 39.5 16.9382 39.5 17.2941C39.5 17.65 39.3652 17.9547 39.0956 18.2081C38.8314 18.4615 38.5132 18.5882 38.1412 18.5882Z" fill="#111111"></path> <path d="M46.6294 38C45.7074 38 44.9147 37.8814 44.2515 37.6441C43.5882 37.4123 43.0355 37.1049 42.5934 36.7221C42.1566 36.3446 41.8088 35.9402 41.55 35.5088L43.0706 34.4412C43.2431 34.6677 43.4615 34.9265 43.7257 35.2176C43.99 35.5142 44.3512 35.7703 44.8096 35.986C45.2733 36.2071 45.8799 36.3177 46.6294 36.3177C47.6324 36.3177 48.4601 36.075 49.1125 35.5897C49.765 35.1044 50.0912 34.3441 50.0912 33.3088V30.7853H49.9294C49.7892 31.0118 49.5897 31.2922 49.3309 31.6265C49.0775 31.9554 48.7108 32.2493 48.2309 32.5081C47.7564 32.7615 47.1147 32.8882 46.3059 32.8882C45.3029 32.8882 44.4025 32.651 43.6044 32.1765C42.8118 31.702 42.1836 31.0118 41.7199 30.1059C41.2615 29.2 41.0324 28.1 41.0324 26.8059C41.0324 25.5333 41.2561 24.4252 41.7037 23.4816C42.1512 22.5326 42.774 21.7993 43.5721 21.2816C44.3701 20.7586 45.2922 20.4971 46.3382 20.4971C47.1471 20.4971 47.7887 20.6319 48.2632 20.9015C48.7432 21.1657 49.1098 21.4676 49.3632 21.8074C49.6221 22.1417 49.8216 22.4167 49.9618 22.6324H50.1559V20.6588H52V33.4382C52 34.5059 51.7574 35.374 51.2721 36.0427C50.7922 36.7167 50.1451 37.2101 49.3309 37.5228C48.5221 37.8409 47.6216 38 46.6294 38ZM46.5647 31.1735C47.3304 31.1735 47.9775 30.9983 48.5059 30.6478C49.0343 30.2973 49.436 29.7931 49.711 29.1353C49.986 28.4775 50.1235 27.6902 50.1235 26.7735C50.1235 25.8784 49.9887 25.0885 49.7191 24.4037C49.4495 23.7189 49.0505 23.1824 48.5221 22.7941C47.9936 22.4059 47.3412 22.2118 46.5647 22.2118C45.7559 22.2118 45.0819 22.4167 44.5426 22.8265C44.0088 23.2363 43.6071 23.7863 43.3375 24.4765C43.0733 25.1667 42.9412 25.9324 42.9412 26.7735C42.9412 27.6363 43.076 28.3993 43.3456 29.0625C43.6206 29.7203 44.025 30.238 44.5588 30.6154C45.098 30.9875 45.7667 31.1735 46.5647 31.1735Z" fill="#111111"></path> <path d="M56.0735 25.6088V33.0824H54.1647V20.6588H56.0088V22.6H56.1706C56.4618 21.9691 56.9039 21.4623 57.4971 21.0794C58.0902 20.6912 58.8559 20.4971 59.7941 20.4971C60.6353 20.4971 61.3713 20.6696 62.0022 21.0147C62.6331 21.3544 63.1238 21.8721 63.4743 22.5676C63.8248 23.2578 64 24.1314 64 25.1882V33.0824H62.0912V25.3177C62.0912 24.3417 61.8377 23.5814 61.3309 23.0368C60.824 22.4868 60.1284 22.2118 59.2441 22.2118C58.6348 22.2118 58.0902 22.3439 57.6103 22.6081C57.1358 22.8723 56.761 23.2578 56.486 23.7647C56.211 24.2716 56.0735 24.8863 56.0735 25.6088Z" fill="#111111"></path> <path d="M67.4559 33.2118C67.0569 33.2118 66.7145 33.0689 66.4287 32.7831C66.1429 32.4973 66 32.1549 66 31.7559C66 31.3569 66.1429 31.0145 66.4287 30.7287C66.7145 30.4429 67.0569 30.3 67.4559 30.3C67.8549 30.3 68.1973 30.4429 68.4831 30.7287C68.7689 31.0145 68.9118 31.3569 68.9118 31.7559C68.9118 32.0201 68.8444 32.2627 68.7096 32.4838C68.5801 32.7049 68.4049 32.8828 68.1838 33.0176C67.9681 33.1471 67.7255 33.2118 67.4559 33.2118Z" fill="#111111"></path> <path d="M6.27353 33.3412C5.23824 33.3412 4.32426 33.0797 3.53162 32.5566C2.73897 32.0282 2.11887 31.2841 1.67132 30.3243C1.22377 29.3591 1 28.2186 1 26.9029C1 25.598 1.22377 24.4657 1.67132 23.5059C2.11887 22.5461 2.74167 21.8047 3.53971 21.2816C4.33775 20.7586 5.25981 20.4971 6.30588 20.4971C7.11471 20.4971 7.75368 20.6319 8.22279 20.9015C8.6973 21.1657 9.05858 21.4676 9.30662 21.8074C9.56005 22.1417 9.75686 22.4167 9.89706 22.6324H10.0588V16.5176H11.9677V33.0824H10.1235V31.1735H9.89706C9.75686 31.4 9.55736 31.6858 9.29853 32.0309C9.03971 32.3706 8.67034 32.6752 8.19044 32.9449C7.71054 33.2091 7.07157 33.3412 6.27353 33.3412ZM6.53235 31.6265C7.29804 31.6265 7.9451 31.427 8.47353 31.0279C9.00196 30.6235 9.40368 30.0654 9.67868 29.3537C9.95368 28.6365 10.0912 27.8088 10.0912 26.8706C10.0912 25.9431 9.95638 25.1316 9.68677 24.436C9.41716 23.735 9.01814 23.1904 8.48971 22.8022C7.96127 22.4086 7.30883 22.2118 6.53235 22.2118C5.72353 22.2118 5.04951 22.4194 4.51029 22.8346C3.97647 23.2444 3.57475 23.8025 3.30515 24.5088C3.04093 25.2098 2.90883 25.9971 2.90883 26.8706C2.90883 27.7549 3.04363 28.5583 3.31324 29.2809C3.58824 29.998 3.99265 30.5696 4.52647 30.9956C5.06569 31.4162 5.73432 31.6265 6.53235 31.6265Z" stroke="#111111" stroke-width="0.2" mask="url(#path-3-outside-2_31_3393)"></path> <path d="M19.7912 33.3412C18.5941 33.3412 17.5615 33.077 16.6934 32.5485C15.8306 32.0147 15.1647 31.2706 14.6956 30.3162C14.2319 29.3564 14 28.2402 14 26.9676C14 25.6951 14.2319 24.5735 14.6956 23.6029C15.1647 22.627 15.8172 21.8667 16.6529 21.3221C17.4941 20.7721 18.4755 20.4971 19.5971 20.4971C20.2441 20.4971 20.8831 20.6049 21.514 20.8206C22.1449 21.0363 22.7191 21.3868 23.2368 21.8721C23.7544 22.352 24.1669 22.9882 24.4743 23.7809C24.7816 24.5735 24.9353 25.5495 24.9353 26.7088V27.5176H15.3588V25.8676H22.9941C22.9941 25.1667 22.8539 24.5412 22.5735 23.9912C22.2985 23.4412 21.9049 23.0071 21.3927 22.689C20.8858 22.3708 20.2873 22.2118 19.5971 22.2118C18.8368 22.2118 18.1789 22.4005 17.6235 22.7779C17.0735 23.15 16.6502 23.6353 16.3537 24.2338C16.0571 24.8324 15.9088 25.474 15.9088 26.1588V27.2588C15.9088 28.1971 16.0706 28.9924 16.3941 29.6449C16.723 30.2919 17.1787 30.7853 17.761 31.125C18.3434 31.4593 19.0201 31.6265 19.7912 31.6265C20.2926 31.6265 20.7456 31.5564 21.15 31.4162C21.5598 31.2706 21.913 31.0549 22.2096 30.7691C22.5061 30.4779 22.7353 30.1167 22.8971 29.6853L24.7412 30.2029C24.5471 30.8284 24.2208 31.3784 23.7625 31.8529C23.3042 32.3221 22.738 32.6887 22.064 32.9529C21.39 33.2118 20.6324 33.3412 19.7912 33.3412Z" stroke="#111111" stroke-width="0.2" mask="url(#path-3-outside-2_31_3393)"></path> <path d="M35.2735 23.4412L33.5588 23.9265C33.451 23.6407 33.2919 23.363 33.0816 23.0934C32.8767 22.8184 32.5963 22.5919 32.2404 22.414C31.8846 22.236 31.4289 22.1471 30.8735 22.1471C30.1132 22.1471 29.4797 22.3223 28.9728 22.6728C28.4713 23.0179 28.2206 23.4574 28.2206 23.9912C28.2206 24.4657 28.3931 24.8404 28.7382 25.1154C29.0833 25.3904 29.6225 25.6196 30.3559 25.8029L32.2 26.2559C33.3108 26.5255 34.1385 26.938 34.6831 27.4934C35.2277 28.0434 35.5 28.7525 35.5 29.6206C35.5 30.3324 35.2951 30.9686 34.8853 31.5294C34.4809 32.0902 33.9147 32.5324 33.1868 32.8559C32.4588 33.1794 31.6123 33.3412 30.6471 33.3412C29.3799 33.3412 28.3311 33.0662 27.5007 32.5162C26.6703 31.9662 26.1446 31.1627 25.9235 30.1059L27.7353 29.6529C27.9078 30.3216 28.2341 30.823 28.714 31.1574C29.1993 31.4917 29.8328 31.6588 30.6147 31.6588C31.5044 31.6588 32.2108 31.4701 32.7338 31.0926C33.2622 30.7098 33.5265 30.2515 33.5265 29.7177C33.5265 29.2863 33.3755 28.925 33.0735 28.6338C32.7716 28.3373 32.3078 28.1162 31.6823 27.9706L29.6118 27.4853C28.474 27.2157 27.6382 26.7978 27.1044 26.2316C26.576 25.6601 26.3118 24.9456 26.3118 24.0882C26.3118 23.3873 26.5086 22.7672 26.9022 22.2279C27.3012 21.6887 27.8431 21.2654 28.5279 20.9581C29.2181 20.6507 30 20.4971 30.8735 20.4971C32.1029 20.4971 33.0681 20.7667 33.7691 21.3059C34.4755 21.8451 34.977 22.5569 35.2735 23.4412Z" stroke="#111111" stroke-width="0.2" mask="url(#path-3-outside-2_31_3393)"></path> <path d="M37.1706 33.0824V20.6588H39.0794V33.0824H37.1706ZM38.1412 18.5882C37.7691 18.5882 37.4483 18.4615 37.1787 18.2081C36.9145 17.9547 36.7824 17.65 36.7824 17.2941C36.7824 16.9382 36.9145 16.6336 37.1787 16.3801C37.4483 16.1267 37.7691 16 38.1412 16C38.5132 16 38.8314 16.1267 39.0956 16.3801C39.3652 16.6336 39.5 16.9382 39.5 17.2941C39.5 17.65 39.3652 17.9547 39.0956 18.2081C38.8314 18.4615 38.5132 18.5882 38.1412 18.5882Z" stroke="#111111" stroke-width="0.2" mask="url(#path-3-outside-2_31_3393)"></path> <path d="M46.6294 38C45.7074 38 44.9147 37.8814 44.2515 37.6441C43.5882 37.4123 43.0355 37.1049 42.5934 36.7221C42.1566 36.3446 41.8088 35.9402 41.55 35.5088L43.0706 34.4412C43.2431 34.6677 43.4615 34.9265 43.7257 35.2176C43.99 35.5142 44.3512 35.7703 44.8096 35.986C45.2733 36.2071 45.8799 36.3177 46.6294 36.3177C47.6324 36.3177 48.4601 36.075 49.1125 35.5897C49.765 35.1044 50.0912 34.3441 50.0912 33.3088V30.7853H49.9294C49.7892 31.0118 49.5897 31.2922 49.3309 31.6265C49.0775 31.9554 48.7108 32.2493 48.2309 32.5081C47.7564 32.7615 47.1147 32.8882 46.3059 32.8882C45.3029 32.8882 44.4025 32.651 43.6044 32.1765C42.8118 31.702 42.1836 31.0118 41.7199 30.1059C41.2615 29.2 41.0324 28.1 41.0324 26.8059C41.0324 25.5333 41.2561 24.4252 41.7037 23.4816C42.1512 22.5326 42.774 21.7993 43.5721 21.2816C44.3701 20.7586 45.2922 20.4971 46.3382 20.4971C47.1471 20.4971 47.7887 20.6319 48.2632 20.9015C48.7432 21.1657 49.1098 21.4676 49.3632 21.8074C49.6221 22.1417 49.8216 22.4167 49.9618 22.6324H50.1559V20.6588H52V33.4382C52 34.5059 51.7574 35.374 51.2721 36.0427C50.7922 36.7167 50.1451 37.2101 49.3309 37.5228C48.5221 37.8409 47.6216 38 46.6294 38ZM46.5647 31.1735C47.3304 31.1735 47.9775 30.9983 48.5059 30.6478C49.0343 30.2973 49.436 29.7931 49.711 29.1353C49.986 28.4775 50.1235 27.6902 50.1235 26.7735C50.1235 25.8784 49.9887 25.0885 49.7191 24.4037C49.4495 23.7189 49.0505 23.1824 48.5221 22.7941C47.9936 22.4059 47.3412 22.2118 46.5647 22.2118C45.7559 22.2118 45.0819 22.4167 44.5426 22.8265C44.0088 23.2363 43.6071 23.7863 43.3375 24.4765C43.0733 25.1667 42.9412 25.9324 42.9412 26.7735C42.9412 27.6363 43.076 28.3993 43.3456 29.0625C43.6206 29.7203 44.025 30.238 44.5588 30.6154C45.098 30.9875 45.7667 31.1735 46.5647 31.1735Z" stroke="#111111" stroke-width="0.2" mask="url(#path-3-outside-2_31_3393)"></path> <path d="M56.0735 25.6088V33.0824H54.1647V20.6588H56.0088V22.6H56.1706C56.4618 21.9691 56.9039 21.4623 57.4971 21.0794C58.0902 20.6912 58.8559 20.4971 59.7941 20.4971C60.6353 20.4971 61.3713 20.6696 62.0022 21.0147C62.6331 21.3544 63.1238 21.8721 63.4743 22.5676C63.8248 23.2578 64 24.1314 64 25.1882V33.0824H62.0912V25.3177C62.0912 24.3417 61.8377 23.5814 61.3309 23.0368C60.824 22.4868 60.1284 22.2118 59.2441 22.2118C58.6348 22.2118 58.0902 22.3439 57.6103 22.6081C57.1358 22.8723 56.761 23.2578 56.486 23.7647C56.211 24.2716 56.0735 24.8863 56.0735 25.6088Z" stroke="#111111" stroke-width="0.2" mask="url(#path-3-outside-2_31_3393)"></path> <path d="M67.4559 33.2118C67.0569 33.2118 66.7145 33.0689 66.4287 32.7831C66.1429 32.4973 66 32.1549 66 31.7559C66 31.3569 66.1429 31.0145 66.4287 30.7287C66.7145 30.4429 67.0569 30.3 67.4559 30.3C67.8549 30.3 68.1973 30.4429 68.4831 30.7287C68.7689 31.0145 68.9118 31.3569 68.9118 31.7559C68.9118 32.0201 68.8444 32.2627 68.7096 32.4838C68.5801 32.7049 68.4049 32.8828 68.1838 33.0176C67.9681 33.1471 67.7255 33.2118 67.4559 33.2118Z" stroke="#111111" stroke-width="0.2" mask="url(#path-3-outside-2_31_3393)"></path> <mask id="path-4-outside-3_31_3393" maskUnits="userSpaceOnUse" x="70" y="19.4658" width="59" height="19" fill="black"> <rect fill="white" x="70" y="19.4658" width="59" height="19"></rect> <path d="M80.35 23.4423L78.6353 23.9276C78.5275 23.6418 78.3684 23.3641 78.1581 23.0945C77.9532 22.8195 77.6728 22.593 77.3169 22.4151C76.961 22.2371 76.5054 22.1482 75.95 22.1482C75.1897 22.1482 74.5561 22.3234 74.0493 22.6739C73.5478 23.019 73.2971 23.4585 73.2971 23.9923C73.2971 24.4668 73.4696 24.8416 73.8147 25.1166C74.1598 25.3916 74.699 25.6207 75.4324 25.8041L77.2765 26.257C78.3873 26.5266 79.215 26.9391 79.7596 27.4945C80.3042 28.0445 80.5765 28.7536 80.5765 29.6217C80.5765 30.3335 80.3716 30.9697 79.9618 31.5305C79.5574 32.0913 78.9912 32.5335 78.2632 32.857C77.5353 33.1805 76.6887 33.3423 75.7235 33.3423C74.4564 33.3423 73.4076 33.0673 72.5772 32.5173C71.7468 31.9673 71.2211 31.1639 71 30.107L72.8118 29.6541C72.9843 30.3227 73.3105 30.8242 73.7904 31.1585C74.2757 31.4928 74.9093 31.6599 75.6912 31.6599C76.5809 31.6599 77.2873 31.4712 77.8103 31.0938C78.3387 30.7109 78.6029 30.2526 78.6029 29.7188C78.6029 29.2874 78.452 28.9261 78.15 28.6349C77.848 28.3384 77.3843 28.1173 76.7588 27.9717L74.6882 27.4864C73.5505 27.2168 72.7147 26.7989 72.1809 26.2327C71.6525 25.6612 71.3882 24.9467 71.3882 24.0893C71.3882 23.3884 71.585 22.7683 71.9787 22.2291C72.3777 21.6898 72.9196 21.2666 73.6044 20.9592C74.2946 20.6518 75.0765 20.4982 75.95 20.4982C77.1794 20.4982 78.1446 20.7678 78.8456 21.307C79.552 21.8462 80.0534 22.558 80.35 23.4423Z"></path> <path d="M81.9586 37.7099V20.6276H83.8027V22.6011H84.0292C84.1694 22.3854 84.3635 22.1104 84.6115 21.7761C84.865 21.4364 85.2262 21.1344 85.6953 20.8702C86.1699 20.6006 86.8115 20.4658 87.6203 20.4658C88.6664 20.4658 89.5885 20.7273 90.3865 21.2504C91.1846 21.7734 91.8074 22.5148 92.2549 23.4746C92.7025 24.4344 92.9262 25.5668 92.9262 26.8717C92.9262 28.1874 92.7025 29.3278 92.2549 30.293C91.8074 31.2528 91.1873 31.9969 90.3946 32.5254C89.602 33.0484 88.688 33.3099 87.6527 33.3099C86.8547 33.3099 86.2157 33.1778 85.7358 32.9136C85.2559 32.644 84.8865 32.3394 84.6277 31.9996C84.3689 31.6545 84.1694 31.3688 84.0292 31.1423H83.8674V37.7099H81.9586ZM83.8351 26.8393C83.8351 27.7776 83.9726 28.6053 84.2476 29.3224C84.5226 30.0342 84.9243 30.5923 85.4527 30.9967C85.9811 31.3957 86.6282 31.5952 87.3939 31.5952C88.1919 31.5952 88.8578 31.3849 89.3917 30.9643C89.9309 30.5384 90.3353 29.9668 90.6049 29.2496C90.8799 28.5271 91.0174 27.7237 91.0174 26.8393C91.0174 25.9658 90.8826 25.1786 90.613 24.4776C90.3488 23.7712 89.9471 23.2131 89.4078 22.8033C88.874 22.3881 88.2027 22.1805 87.3939 22.1805C86.6174 22.1805 85.965 22.3773 85.4365 22.771C84.9081 23.1592 84.5091 23.7038 84.2395 24.4048C83.9699 25.1004 83.8351 25.9119 83.8351 26.8393Z"></path> <path d="M98.3951 33.3423C97.6079 33.3423 96.8934 33.194 96.2517 32.8974C95.6101 32.5955 95.1005 32.1614 94.7231 31.5952C94.3456 31.0237 94.1569 30.3335 94.1569 29.5246C94.1569 28.8129 94.2971 28.2359 94.5775 27.7938C94.8579 27.3462 95.2326 26.9957 95.7017 26.7423C96.1708 26.4889 96.6885 26.3001 97.2547 26.1761C97.8262 26.0467 98.4005 25.9443 98.9775 25.8688C99.7324 25.7717 100.344 25.6989 100.813 25.6504C101.288 25.5965 101.633 25.5075 101.849 25.3835C102.07 25.2594 102.18 25.0438 102.18 24.7364V24.6717C102.18 23.8737 101.962 23.2536 101.525 22.8114C101.094 22.3693 100.439 22.1482 99.5598 22.1482C98.6485 22.1482 97.9341 22.3477 97.4164 22.7467C96.8988 23.1457 96.5348 23.5717 96.3245 24.0246L94.5128 23.3776C94.8363 22.6227 95.2677 22.0349 95.8069 21.6143C96.3515 21.1884 96.9446 20.8918 97.5863 20.7246C98.2333 20.5521 98.8696 20.4658 99.4951 20.4658C99.8941 20.4658 100.352 20.5143 100.87 20.6114C101.393 20.7031 101.897 20.8945 102.383 21.1857C102.873 21.4768 103.28 21.9163 103.604 22.5041C103.927 23.0918 104.089 23.8791 104.089 24.8658V33.0511H102.18V31.3688H102.083C101.954 31.6384 101.738 31.9269 101.436 32.2342C101.134 32.5416 100.733 32.8031 100.231 33.0188C99.7297 33.2344 99.1177 33.3423 98.3951 33.3423ZM98.6863 31.6276C99.4412 31.6276 100.077 31.4793 100.595 31.1827C101.118 30.8862 101.512 30.5033 101.776 30.0342C102.046 29.5651 102.18 29.0717 102.18 28.5541V26.807C102.1 26.9041 101.922 26.993 101.647 27.0739C101.377 27.1494 101.064 27.2168 100.708 27.2761C100.358 27.33 100.015 27.3786 99.6811 27.4217C99.3522 27.4594 99.0853 27.4918 98.8804 27.5188C98.3843 27.5835 97.9206 27.6886 97.4892 27.8342C97.0632 27.9744 96.7181 28.1874 96.4539 28.4732C96.1951 28.7536 96.0657 29.1364 96.0657 29.6217C96.0657 30.2849 96.311 30.7864 96.8017 31.1261C97.2978 31.4604 97.926 31.6276 98.6863 31.6276Z"></path> <path d="M111.423 33.3099C110.258 33.3099 109.255 33.0349 108.414 32.4849C107.573 31.9349 106.925 31.1773 106.473 30.2121C106.02 29.2469 105.793 28.1443 105.793 26.9041C105.793 25.6423 106.025 24.5288 106.489 23.5636C106.958 22.593 107.61 21.8354 108.446 21.2908C109.287 20.7408 110.269 20.4658 111.39 20.4658C112.264 20.4658 113.051 20.6276 113.752 20.9511C114.453 21.2746 115.027 21.7276 115.475 22.3099C115.922 22.8923 116.2 23.5717 116.308 24.3482H114.399C114.253 23.782 113.93 23.2805 113.428 22.8438C112.932 22.4016 112.264 22.1805 111.423 22.1805C110.678 22.1805 110.026 22.3746 109.465 22.7629C108.91 23.1457 108.476 23.6876 108.163 24.3886C107.856 25.0842 107.702 25.9011 107.702 26.8393C107.702 27.7992 107.853 28.6349 108.155 29.3467C108.462 30.0585 108.894 30.6112 109.449 31.0048C110.01 31.3984 110.668 31.5952 111.423 31.5952C111.919 31.5952 112.369 31.509 112.773 31.3364C113.178 31.1639 113.52 30.9158 113.8 30.5923C114.081 30.2688 114.28 29.8805 114.399 29.4276H116.308C116.2 30.1609 115.933 30.8215 115.507 31.4092C115.086 31.9916 114.528 32.4553 113.833 32.8004C113.143 33.1401 112.339 33.3099 111.423 33.3099Z"></path> <path d="M123.282 33.3099C122.085 33.3099 121.052 33.0457 120.184 32.5173C119.322 31.9835 118.656 31.2393 118.187 30.2849C117.723 29.3251 117.491 28.209 117.491 26.9364C117.491 25.6639 117.723 24.5423 118.187 23.5717C118.656 22.5957 119.308 21.8354 120.144 21.2908C120.985 20.7408 121.966 20.4658 123.088 20.4658C123.735 20.4658 124.374 20.5737 125.005 20.7893C125.636 21.005 126.21 21.3555 126.728 21.8408C127.245 22.3207 127.658 22.957 127.965 23.7496C128.273 24.5423 128.426 25.5183 128.426 26.6776V27.4864H118.85V25.8364H126.485C126.485 25.1354 126.345 24.5099 126.065 23.9599C125.79 23.4099 125.396 22.9759 124.884 22.6577C124.377 22.3396 123.778 22.1805 123.088 22.1805C122.328 22.1805 121.67 22.3693 121.115 22.7467C120.565 23.1188 120.141 23.6041 119.845 24.2026C119.548 24.8011 119.4 25.4428 119.4 26.1276V27.2276C119.4 28.1658 119.562 28.9612 119.885 29.6136C120.214 30.2607 120.67 30.7541 121.252 31.0938C121.834 31.4281 122.511 31.5952 123.282 31.5952C123.784 31.5952 124.237 31.5251 124.641 31.3849C125.051 31.2394 125.404 31.0237 125.701 30.7379C125.997 30.4467 126.226 30.0854 126.388 29.6541L128.232 30.1717C128.038 30.7972 127.712 31.3472 127.253 31.8217C126.795 32.2908 126.229 32.6575 125.555 32.9217C124.881 33.1805 124.123 33.3099 123.282 33.3099Z"></path> </mask> <path d="M80.35 23.4423L78.6353 23.9276C78.5275 23.6418 78.3684 23.3641 78.1581 23.0945C77.9532 22.8195 77.6728 22.593 77.3169 22.4151C76.961 22.2371 76.5054 22.1482 75.95 22.1482C75.1897 22.1482 74.5561 22.3234 74.0493 22.6739C73.5478 23.019 73.2971 23.4585 73.2971 23.9923C73.2971 24.4668 73.4696 24.8416 73.8147 25.1166C74.1598 25.3916 74.699 25.6207 75.4324 25.8041L77.2765 26.257C78.3873 26.5266 79.215 26.9391 79.7596 27.4945C80.3042 28.0445 80.5765 28.7536 80.5765 29.6217C80.5765 30.3335 80.3716 30.9697 79.9618 31.5305C79.5574 32.0913 78.9912 32.5335 78.2632 32.857C77.5353 33.1805 76.6887 33.3423 75.7235 33.3423C74.4564 33.3423 73.4076 33.0673 72.5772 32.5173C71.7468 31.9673 71.2211 31.1639 71 30.107L72.8118 29.6541C72.9843 30.3227 73.3105 30.8242 73.7904 31.1585C74.2757 31.4928 74.9093 31.6599 75.6912 31.6599C76.5809 31.6599 77.2873 31.4712 77.8103 31.0938C78.3387 30.7109 78.6029 30.2526 78.6029 29.7188C78.6029 29.2874 78.452 28.9261 78.15 28.6349C77.848 28.3384 77.3843 28.1173 76.7588 27.9717L74.6882 27.4864C73.5505 27.2168 72.7147 26.7989 72.1809 26.2327C71.6525 25.6612 71.3882 24.9467 71.3882 24.0893C71.3882 23.3884 71.585 22.7683 71.9787 22.2291C72.3777 21.6898 72.9196 21.2666 73.6044 20.9592C74.2946 20.6518 75.0765 20.4982 75.95 20.4982C77.1794 20.4982 78.1446 20.7678 78.8456 21.307C79.552 21.8462 80.0534 22.558 80.35 23.4423Z" fill="#111111"></path> <path d="M81.9586 37.7099V20.6276H83.8027V22.6011H84.0292C84.1694 22.3854 84.3635 22.1104 84.6115 21.7761C84.865 21.4364 85.2262 21.1344 85.6953 20.8702C86.1699 20.6006 86.8115 20.4658 87.6203 20.4658C88.6664 20.4658 89.5885 20.7273 90.3865 21.2504C91.1846 21.7734 91.8074 22.5148 92.2549 23.4746C92.7025 24.4344 92.9262 25.5668 92.9262 26.8717C92.9262 28.1874 92.7025 29.3278 92.2549 30.293C91.8074 31.2528 91.1873 31.9969 90.3946 32.5254C89.602 33.0484 88.688 33.3099 87.6527 33.3099C86.8547 33.3099 86.2157 33.1778 85.7358 32.9136C85.2559 32.644 84.8865 32.3394 84.6277 31.9996C84.3689 31.6545 84.1694 31.3688 84.0292 31.1423H83.8674V37.7099H81.9586ZM83.8351 26.8393C83.8351 27.7776 83.9726 28.6053 84.2476 29.3224C84.5226 30.0342 84.9243 30.5923 85.4527 30.9967C85.9811 31.3957 86.6282 31.5952 87.3939 31.5952C88.1919 31.5952 88.8578 31.3849 89.3917 30.9643C89.9309 30.5384 90.3353 29.9668 90.6049 29.2496C90.8799 28.5271 91.0174 27.7237 91.0174 26.8393C91.0174 25.9658 90.8826 25.1786 90.613 24.4776C90.3488 23.7712 89.9471 23.2131 89.4078 22.8033C88.874 22.3881 88.2027 22.1805 87.3939 22.1805C86.6174 22.1805 85.965 22.3773 85.4365 22.771C84.9081 23.1592 84.5091 23.7038 84.2395 24.4048C83.9699 25.1004 83.8351 25.9119 83.8351 26.8393Z" fill="#111111"></path> <path d="M98.3951 33.3423C97.6079 33.3423 96.8934 33.194 96.2517 32.8974C95.6101 32.5955 95.1005 32.1614 94.7231 31.5952C94.3456 31.0237 94.1569 30.3335 94.1569 29.5246C94.1569 28.8129 94.2971 28.2359 94.5775 27.7938C94.8579 27.3462 95.2326 26.9957 95.7017 26.7423C96.1708 26.4889 96.6885 26.3001 97.2547 26.1761C97.8262 26.0467 98.4005 25.9443 98.9775 25.8688C99.7324 25.7717 100.344 25.6989 100.813 25.6504C101.288 25.5965 101.633 25.5075 101.849 25.3835C102.07 25.2594 102.18 25.0438 102.18 24.7364V24.6717C102.18 23.8737 101.962 23.2536 101.525 22.8114C101.094 22.3693 100.439 22.1482 99.5598 22.1482C98.6485 22.1482 97.9341 22.3477 97.4164 22.7467C96.8988 23.1457 96.5348 23.5717 96.3245 24.0246L94.5128 23.3776C94.8363 22.6227 95.2677 22.0349 95.8069 21.6143C96.3515 21.1884 96.9446 20.8918 97.5863 20.7246C98.2333 20.5521 98.8696 20.4658 99.4951 20.4658C99.8941 20.4658 100.352 20.5143 100.87 20.6114C101.393 20.7031 101.897 20.8945 102.383 21.1857C102.873 21.4768 103.28 21.9163 103.604 22.5041C103.927 23.0918 104.089 23.8791 104.089 24.8658V33.0511H102.18V31.3688H102.083C101.954 31.6384 101.738 31.9269 101.436 32.2342C101.134 32.5416 100.733 32.8031 100.231 33.0188C99.7297 33.2344 99.1177 33.3423 98.3951 33.3423ZM98.6863 31.6276C99.4412 31.6276 100.077 31.4793 100.595 31.1827C101.118 30.8862 101.512 30.5033 101.776 30.0342C102.046 29.5651 102.18 29.0717 102.18 28.5541V26.807C102.1 26.9041 101.922 26.993 101.647 27.0739C101.377 27.1494 101.064 27.2168 100.708 27.2761C100.358 27.33 100.015 27.3786 99.6811 27.4217C99.3522 27.4594 99.0853 27.4918 98.8804 27.5188C98.3843 27.5835 97.9206 27.6886 97.4892 27.8342C97.0632 27.9744 96.7181 28.1874 96.4539 28.4732C96.1951 28.7536 96.0657 29.1364 96.0657 29.6217C96.0657 30.2849 96.311 30.7864 96.8017 31.1261C97.2978 31.4604 97.926 31.6276 98.6863 31.6276Z" fill="#111111"></path> <path d="M111.423 33.3099C110.258 33.3099 109.255 33.0349 108.414 32.4849C107.573 31.9349 106.925 31.1773 106.473 30.2121C106.02 29.2469 105.793 28.1443 105.793 26.9041C105.793 25.6423 106.025 24.5288 106.489 23.5636C106.958 22.593 107.61 21.8354 108.446 21.2908C109.287 20.7408 110.269 20.4658 111.39 20.4658C112.264 20.4658 113.051 20.6276 113.752 20.9511C114.453 21.2746 115.027 21.7276 115.475 22.3099C115.922 22.8923 116.2 23.5717 116.308 24.3482H114.399C114.253 23.782 113.93 23.2805 113.428 22.8438C112.932 22.4016 112.264 22.1805 111.423 22.1805C110.678 22.1805 110.026 22.3746 109.465 22.7629C108.91 23.1457 108.476 23.6876 108.163 24.3886C107.856 25.0842 107.702 25.9011 107.702 26.8393C107.702 27.7992 107.853 28.6349 108.155 29.3467C108.462 30.0585 108.894 30.6112 109.449 31.0048C110.01 31.3984 110.668 31.5952 111.423 31.5952C111.919 31.5952 112.369 31.509 112.773 31.3364C113.178 31.1639 113.52 30.9158 113.8 30.5923C114.081 30.2688 114.28 29.8805 114.399 29.4276H116.308C116.2 30.1609 115.933 30.8215 115.507 31.4092C115.086 31.9916 114.528 32.4553 113.833 32.8004C113.143 33.1401 112.339 33.3099 111.423 33.3099Z" fill="#111111"></path> <path d="M123.282 33.3099C122.085 33.3099 121.052 33.0457 120.184 32.5173C119.322 31.9835 118.656 31.2393 118.187 30.2849C117.723 29.3251 117.491 28.209 117.491 26.9364C117.491 25.6639 117.723 24.5423 118.187 23.5717C118.656 22.5957 119.308 21.8354 120.144 21.2908C120.985 20.7408 121.966 20.4658 123.088 20.4658C123.735 20.4658 124.374 20.5737 125.005 20.7893C125.636 21.005 126.21 21.3555 126.728 21.8408C127.245 22.3207 127.658 22.957 127.965 23.7496C128.273 24.5423 128.426 25.5183 128.426 26.6776V27.4864H118.85V25.8364H126.485C126.485 25.1354 126.345 24.5099 126.065 23.9599C125.79 23.4099 125.396 22.9759 124.884 22.6577C124.377 22.3396 123.778 22.1805 123.088 22.1805C122.328 22.1805 121.67 22.3693 121.115 22.7467C120.565 23.1188 120.141 23.6041 119.845 24.2026C119.548 24.8011 119.4 25.4428 119.4 26.1276V27.2276C119.4 28.1658 119.562 28.9612 119.885 29.6136C120.214 30.2607 120.67 30.7541 121.252 31.0938C121.834 31.4281 122.511 31.5952 123.282 31.5952C123.784 31.5952 124.237 31.5251 124.641 31.3849C125.051 31.2394 125.404 31.0237 125.701 30.7379C125.997 30.4467 126.226 30.0854 126.388 29.6541L128.232 30.1717C128.038 30.7972 127.712 31.3472 127.253 31.8217C126.795 32.2908 126.229 32.6575 125.555 32.9217C124.881 33.1805 124.123 33.3099 123.282 33.3099Z" fill="#111111"></path> <path d="M80.35 23.4423L78.6353 23.9276C78.5275 23.6418 78.3684 23.3641 78.1581 23.0945C77.9532 22.8195 77.6728 22.593 77.3169 22.4151C76.961 22.2371 76.5054 22.1482 75.95 22.1482C75.1897 22.1482 74.5561 22.3234 74.0493 22.6739C73.5478 23.019 73.2971 23.4585 73.2971 23.9923C73.2971 24.4668 73.4696 24.8416 73.8147 25.1166C74.1598 25.3916 74.699 25.6207 75.4324 25.8041L77.2765 26.257C78.3873 26.5266 79.215 26.9391 79.7596 27.4945C80.3042 28.0445 80.5765 28.7536 80.5765 29.6217C80.5765 30.3335 80.3716 30.9697 79.9618 31.5305C79.5574 32.0913 78.9912 32.5335 78.2632 32.857C77.5353 33.1805 76.6887 33.3423 75.7235 33.3423C74.4564 33.3423 73.4076 33.0673 72.5772 32.5173C71.7468 31.9673 71.2211 31.1639 71 30.107L72.8118 29.6541C72.9843 30.3227 73.3105 30.8242 73.7904 31.1585C74.2757 31.4928 74.9093 31.6599 75.6912 31.6599C76.5809 31.6599 77.2873 31.4712 77.8103 31.0938C78.3387 30.7109 78.6029 30.2526 78.6029 29.7188C78.6029 29.2874 78.452 28.9261 78.15 28.6349C77.848 28.3384 77.3843 28.1173 76.7588 27.9717L74.6882 27.4864C73.5505 27.2168 72.7147 26.7989 72.1809 26.2327C71.6525 25.6612 71.3882 24.9467 71.3882 24.0893C71.3882 23.3884 71.585 22.7683 71.9787 22.2291C72.3777 21.6898 72.9196 21.2666 73.6044 20.9592C74.2946 20.6518 75.0765 20.4982 75.95 20.4982C77.1794 20.4982 78.1446 20.7678 78.8456 21.307C79.552 21.8462 80.0534 22.558 80.35 23.4423Z" stroke="#111111" stroke-width="0.2" mask="url(#path-4-outside-3_31_3393)"></path> <path d="M81.9586 37.7099V20.6276H83.8027V22.6011H84.0292C84.1694 22.3854 84.3635 22.1104 84.6115 21.7761C84.865 21.4364 85.2262 21.1344 85.6953 20.8702C86.1699 20.6006 86.8115 20.4658 87.6203 20.4658C88.6664 20.4658 89.5885 20.7273 90.3865 21.2504C91.1846 21.7734 91.8074 22.5148 92.2549 23.4746C92.7025 24.4344 92.9262 25.5668 92.9262 26.8717C92.9262 28.1874 92.7025 29.3278 92.2549 30.293C91.8074 31.2528 91.1873 31.9969 90.3946 32.5254C89.602 33.0484 88.688 33.3099 87.6527 33.3099C86.8547 33.3099 86.2157 33.1778 85.7358 32.9136C85.2559 32.644 84.8865 32.3394 84.6277 31.9996C84.3689 31.6545 84.1694 31.3688 84.0292 31.1423H83.8674V37.7099H81.9586ZM83.8351 26.8393C83.8351 27.7776 83.9726 28.6053 84.2476 29.3224C84.5226 30.0342 84.9243 30.5923 85.4527 30.9967C85.9811 31.3957 86.6282 31.5952 87.3939 31.5952C88.1919 31.5952 88.8578 31.3849 89.3917 30.9643C89.9309 30.5384 90.3353 29.9668 90.6049 29.2496C90.8799 28.5271 91.0174 27.7237 91.0174 26.8393C91.0174 25.9658 90.8826 25.1786 90.613 24.4776C90.3488 23.7712 89.9471 23.2131 89.4078 22.8033C88.874 22.3881 88.2027 22.1805 87.3939 22.1805C86.6174 22.1805 85.965 22.3773 85.4365 22.771C84.9081 23.1592 84.5091 23.7038 84.2395 24.4048C83.9699 25.1004 83.8351 25.9119 83.8351 26.8393Z" stroke="#111111" stroke-width="0.2" mask="url(#path-4-outside-3_31_3393)"></path> <path d="M98.3951 33.3423C97.6079 33.3423 96.8934 33.194 96.2517 32.8974C95.6101 32.5955 95.1005 32.1614 94.7231 31.5952C94.3456 31.0237 94.1569 30.3335 94.1569 29.5246C94.1569 28.8129 94.2971 28.2359 94.5775 27.7938C94.8579 27.3462 95.2326 26.9957 95.7017 26.7423C96.1708 26.4889 96.6885 26.3001 97.2547 26.1761C97.8262 26.0467 98.4005 25.9443 98.9775 25.8688C99.7324 25.7717 100.344 25.6989 100.813 25.6504C101.288 25.5965 101.633 25.5075 101.849 25.3835C102.07 25.2594 102.18 25.0438 102.18 24.7364V24.6717C102.18 23.8737 101.962 23.2536 101.525 22.8114C101.094 22.3693 100.439 22.1482 99.5598 22.1482C98.6485 22.1482 97.9341 22.3477 97.4164 22.7467C96.8988 23.1457 96.5348 23.5717 96.3245 24.0246L94.5128 23.3776C94.8363 22.6227 95.2677 22.0349 95.8069 21.6143C96.3515 21.1884 96.9446 20.8918 97.5863 20.7246C98.2333 20.5521 98.8696 20.4658 99.4951 20.4658C99.8941 20.4658 100.352 20.5143 100.87 20.6114C101.393 20.7031 101.897 20.8945 102.383 21.1857C102.873 21.4768 103.28 21.9163 103.604 22.5041C103.927 23.0918 104.089 23.8791 104.089 24.8658V33.0511H102.18V31.3688H102.083C101.954 31.6384 101.738 31.9269 101.436 32.2342C101.134 32.5416 100.733 32.8031 100.231 33.0188C99.7297 33.2344 99.1177 33.3423 98.3951 33.3423ZM98.6863 31.6276C99.4412 31.6276 100.077 31.4793 100.595 31.1827C101.118 30.8862 101.512 30.5033 101.776 30.0342C102.046 29.5651 102.18 29.0717 102.18 28.5541V26.807C102.1 26.9041 101.922 26.993 101.647 27.0739C101.377 27.1494 101.064 27.2168 100.708 27.2761C100.358 27.33 100.015 27.3786 99.6811 27.4217C99.3522 27.4594 99.0853 27.4918 98.8804 27.5188C98.3843 27.5835 97.9206 27.6886 97.4892 27.8342C97.0632 27.9744 96.7181 28.1874 96.4539 28.4732C96.1951 28.7536 96.0657 29.1364 96.0657 29.6217C96.0657 30.2849 96.311 30.7864 96.8017 31.1261C97.2978 31.4604 97.926 31.6276 98.6863 31.6276Z" stroke="#111111" stroke-width="0.2" mask="url(#path-4-outside-3_31_3393)"></path> <path d="M111.423 33.3099C110.258 33.3099 109.255 33.0349 108.414 32.4849C107.573 31.9349 106.925 31.1773 106.473 30.2121C106.02 29.2469 105.793 28.1443 105.793 26.9041C105.793 25.6423 106.025 24.5288 106.489 23.5636C106.958 22.593 107.61 21.8354 108.446 21.2908C109.287 20.7408 110.269 20.4658 111.39 20.4658C112.264 20.4658 113.051 20.6276 113.752 20.9511C114.453 21.2746 115.027 21.7276 115.475 22.3099C115.922 22.8923 116.2 23.5717 116.308 24.3482H114.399C114.253 23.782 113.93 23.2805 113.428 22.8438C112.932 22.4016 112.264 22.1805 111.423 22.1805C110.678 22.1805 110.026 22.3746 109.465 22.7629C108.91 23.1457 108.476 23.6876 108.163 24.3886C107.856 25.0842 107.702 25.9011 107.702 26.8393C107.702 27.7992 107.853 28.6349 108.155 29.3467C108.462 30.0585 108.894 30.6112 109.449 31.0048C110.01 31.3984 110.668 31.5952 111.423 31.5952C111.919 31.5952 112.369 31.509 112.773 31.3364C113.178 31.1639 113.52 30.9158 113.8 30.5923C114.081 30.2688 114.28 29.8805 114.399 29.4276H116.308C116.2 30.1609 115.933 30.8215 115.507 31.4092C115.086 31.9916 114.528 32.4553 113.833 32.8004C113.143 33.1401 112.339 33.3099 111.423 33.3099Z" stroke="#111111" stroke-width="0.2" mask="url(#path-4-outside-3_31_3393)"></path> <path d="M123.282 33.3099C122.085 33.3099 121.052 33.0457 120.184 32.5173C119.322 31.9835 118.656 31.2393 118.187 30.2849C117.723 29.3251 117.491 28.209 117.491 26.9364C117.491 25.6639 117.723 24.5423 118.187 23.5717C118.656 22.5957 119.308 21.8354 120.144 21.2908C120.985 20.7408 121.966 20.4658 123.088 20.4658C123.735 20.4658 124.374 20.5737 125.005 20.7893C125.636 21.005 126.21 21.3555 126.728 21.8408C127.245 22.3207 127.658 22.957 127.965 23.7496C128.273 24.5423 128.426 25.5183 128.426 26.6776V27.4864H118.85V25.8364H126.485C126.485 25.1354 126.345 24.5099 126.065 23.9599C125.79 23.4099 125.396 22.9759 124.884 22.6577C124.377 22.3396 123.778 22.1805 123.088 22.1805C122.328 22.1805 121.67 22.3693 121.115 22.7467C120.565 23.1188 120.141 23.6041 119.845 24.2026C119.548 24.8011 119.4 25.4428 119.4 26.1276V27.2276C119.4 28.1658 119.562 28.9612 119.885 29.6136C120.214 30.2607 120.67 30.7541 121.252 31.0938C121.834 31.4281 122.511 31.5952 123.282 31.5952C123.784 31.5952 124.237 31.5251 124.641 31.3849C125.051 31.2394 125.404 31.0237 125.701 30.7379C125.997 30.4467 126.226 30.0854 126.388 29.6541L128.232 30.1717C128.038 30.7972 127.712 31.3472 127.253 31.8217C126.795 32.2908 126.229 32.6575 125.555 32.9217C124.881 33.1805 124.123 33.3099 123.282 33.3099Z" stroke="#111111" stroke-width="0.2" mask="url(#path-4-outside-3_31_3393)"></path> </svg> 