<?xml version="1.0" encoding="UTF-8"?> <svg xmlns="http://www.w3.org/2000/svg" width="326" height="96" viewBox="0 0 326 96" fill="none"><path d="M103.066 5.48331C103.066 5.01913 103.18 4.59599 103.406 4.21389C103.633 3.83179 103.937 3.52752 104.32 3.30109C104.702 3.07466 105.126 2.96145 105.59 2.96145C105.992 2.96145 106.364 3.04777 106.703 3.22043C107.046 3.39308 107.329 3.62941 107.553 3.92943C107.777 4.22662 107.916 4.56344 107.97 4.93988H106.941C106.885 4.64835 106.728 4.4106 106.47 4.22662C106.212 4.03982 105.919 3.94642 105.59 3.94642C105.307 3.94642 105.049 4.01576 104.817 4.15445C104.585 4.29314 104.399 4.47852 104.26 4.71062C104.121 4.94271 104.052 5.20027 104.052 5.48331C104.052 5.76634 104.121 6.02391 104.26 6.256C104.399 6.48809 104.585 6.67348 104.817 6.81217C105.049 6.95085 105.307 7.0202 105.59 7.0202C105.919 7.0202 106.196 6.92821 106.423 6.74424C106.652 6.55743 106.797 6.31827 106.856 6.02674H107.885C107.831 6.40318 107.699 6.74141 107.49 7.04143C107.28 7.33861 107.011 7.57354 106.682 7.74619C106.356 7.91884 105.992 8.00517 105.59 8.00517C105.126 8.00517 104.702 7.89195 104.32 7.66552C103.937 7.43909 103.633 7.13483 103.406 6.75273C103.18 6.37063 103.066 5.94749 103.066 5.48331ZM105.548 9.96661C104.93 9.96661 104.349 9.85057 103.806 9.61848C103.265 9.38639 102.787 9.06514 102.374 8.65474C101.963 8.2415 101.64 7.76459 101.405 7.22398C101.173 6.68338 101.058 6.10316 101.061 5.48331C101.063 4.86346 101.181 4.28323 101.413 3.74263C101.648 3.20203 101.971 2.72653 102.382 2.31612C102.793 1.90289 103.269 1.58023 103.81 1.34814C104.351 1.11605 104.93 1 105.548 1C106.168 1 106.749 1.11605 107.29 1.34814C107.834 1.58023 108.31 1.90289 108.717 2.31612C109.128 2.72653 109.45 3.20203 109.682 3.74263C109.914 4.28323 110.032 4.86346 110.035 5.48331C110.038 6.10316 109.923 6.68338 109.691 7.22398C109.458 7.76459 109.137 8.2415 108.726 8.65474C108.315 9.06514 107.838 9.38639 107.294 9.61848C106.75 9.85057 106.168 9.96661 105.548 9.96661ZM105.548 8.98164C106.032 8.98164 106.487 8.89107 106.912 8.70993C107.337 8.52879 107.709 8.2783 108.029 7.95847C108.349 7.63863 108.6 7.26786 108.781 6.84613C108.963 6.42157 109.052 5.96872 109.049 5.48755C109.046 5.00356 108.954 4.54928 108.773 4.12473C108.591 3.70017 108.341 3.32798 108.021 3.00815C107.701 2.68832 107.329 2.43783 106.907 2.25668C106.485 2.07554 106.032 1.98497 105.548 1.98497C105.066 1.98497 104.614 2.07554 104.192 2.25668C103.77 2.43783 103.399 2.68973 103.079 3.01239C102.759 3.33223 102.507 3.70442 102.323 4.12897C102.141 4.5507 102.049 5.00356 102.046 5.48755C102.044 5.96588 102.133 6.41733 102.314 6.84188C102.495 7.26361 102.746 7.63439 103.066 7.95422C103.389 8.27405 103.762 8.52596 104.184 8.70993C104.609 8.89107 105.063 8.98164 105.548 8.98164Z" fill="#111111"></path><mask id="path-2-outside-1_26_2250" maskUnits="userSpaceOnUse" x="0" y="0" width="98" height="35" fill="black"><rect fill="white" width="98" height="35"></rect><path d="M1 33.2802V1.41491H5.73864V6.39386H6.15431C6.81938 4.69272 7.8932 3.37192 9.37575 2.43145C10.8583 1.47715 12.6388 1 14.7171 1C16.8232 1 18.5759 1.47715 19.9753 2.43145C21.3886 3.37192 22.4901 4.69272 23.2799 6.39386H23.6125C24.4299 4.74804 25.6562 3.44107 27.2911 2.47294C28.9261 1.49098 30.8867 1 33.1729 1C36.0271 1 38.3618 1.89206 40.1769 3.67618C41.992 5.44648 42.8996 8.20564 42.8996 11.9537V33.2802H37.9946V11.9537C37.9946 9.60252 37.3504 7.92212 36.0618 6.9125C34.7732 5.90288 33.256 5.39807 31.5102 5.39807C29.2656 5.39807 27.5267 6.07576 26.2935 7.43114C25.0604 8.77269 24.4438 10.4738 24.4438 12.5346V33.2802H19.4558V11.4558C19.4558 9.64401 18.8669 8.1849 17.6892 7.07847C16.5114 5.9582 14.9942 5.39807 13.1376 5.39807C11.8628 5.39807 10.6713 5.73692 9.56281 6.41461C8.46821 7.0923 7.58144 8.03277 6.90252 9.23601C6.23744 10.4254 5.90491 11.8016 5.90491 13.3644V33.2802H1Z"></path><path d="M69.2517 8.55141L64.8456 9.79614C64.5685 9.06313 64.1598 8.35086 63.6194 7.65934C63.0929 6.95399 62.3724 6.37311 61.4579 5.91671C60.5434 5.46031 59.3726 5.23211 57.9455 5.23211C55.9919 5.23211 54.3638 5.68159 53.0614 6.58057C51.7728 7.46572 51.1285 8.5929 51.1285 9.96211C51.1285 11.1792 51.5719 12.1404 52.4587 12.8457C53.3454 13.5511 54.731 14.1389 56.6154 14.6091L61.354 15.7709C64.2083 16.4624 66.3351 17.5204 67.7345 18.945C69.134 20.3557 69.8337 22.1744 69.8337 24.4011C69.8337 26.2267 69.3072 27.8587 68.2541 29.297C67.2149 30.7354 65.7601 31.8695 63.8896 32.6993C62.0191 33.5291 59.8437 33.944 57.3636 33.944C54.1075 33.944 51.4126 33.2387 49.2788 31.828C47.145 30.4173 45.7941 28.3566 45.226 25.6458L49.8815 24.484C50.3249 26.199 51.1632 27.4852 52.3963 28.3427C53.6433 29.2002 55.2714 29.629 57.2804 29.629C59.5666 29.629 61.3817 29.1449 62.7257 28.1768C64.0836 27.1948 64.7625 26.0192 64.7625 24.65C64.7625 23.5436 64.3745 22.6169 63.5986 21.8701C62.8227 21.1094 61.6311 20.5424 60.0239 20.169L54.7033 18.9242C51.7797 18.2327 49.6321 17.1608 48.2604 15.7086C46.9025 14.2426 46.2236 12.4101 46.2236 10.2111C46.2236 8.4131 46.7293 6.8226 47.7408 5.43956C48.7661 4.05652 50.1586 2.97083 51.9183 2.1825C53.6918 1.39417 55.7009 1 57.9455 1C61.1046 1 63.5848 1.69152 65.386 3.07456C67.2011 4.4576 68.4897 6.28322 69.2517 8.55141Z"></path><path d="M83.1386 34.027C81.1157 34.027 79.2798 33.6467 77.631 32.886C75.9821 32.1115 74.6728 30.9982 73.7029 29.546C72.733 28.08 72.248 26.3097 72.248 24.2351C72.248 22.4095 72.6083 20.9296 73.3288 19.7955C74.0493 18.6476 75.0122 17.7486 76.2177 17.0986C77.4231 16.4486 78.7533 15.9645 80.2081 15.6464C81.6768 15.3145 83.1524 15.0517 84.635 14.8581C86.5748 14.6091 88.1474 14.4224 89.3529 14.2979C90.5722 14.1596 91.4589 13.9314 92.0131 13.6133C92.5812 13.2952 92.8653 12.742 92.8653 11.9537V11.7877C92.8653 9.74082 92.3041 8.15032 91.1818 7.01623C90.0734 5.88214 88.3899 5.31509 86.1314 5.31509C83.7898 5.31509 81.9539 5.82681 80.6238 6.85026C79.2936 7.87372 78.3584 8.96632 77.818 10.1281L73.1625 8.46842C73.9939 6.53216 75.1023 5.02465 76.4879 3.94588C77.8873 2.85327 79.4114 2.0926 81.0602 1.66386C82.7229 1.22129 84.3579 1 85.9652 1C86.9905 1 88.1682 1.12447 89.4983 1.37342C90.8423 1.60854 92.1379 2.09952 93.3849 2.84636C94.6457 3.5932 95.6918 4.72038 96.5232 6.2279C97.3545 7.73541 97.7702 9.75465 97.7702 12.2856V33.2802H92.8653V28.9651H92.6159C92.2833 29.6566 91.7291 30.3965 90.9532 31.1849C90.1773 31.9732 89.145 32.644 87.8564 33.1972C86.5679 33.7504 84.9953 34.027 83.1386 34.027ZM83.8868 29.629C85.8266 29.629 87.4616 29.2486 88.7917 28.4879C90.1357 27.7273 91.1472 26.7453 91.8261 25.5421C92.5189 24.3388 92.8653 23.0733 92.8653 21.7456V17.2646C92.6574 17.5135 92.2002 17.7417 91.4936 17.9492C90.8008 18.1428 89.9972 18.3157 89.0827 18.4678C88.1821 18.6061 87.3022 18.7306 86.4432 18.8412C85.598 18.938 84.9121 19.021 84.3856 19.0902C83.1109 19.2561 81.9193 19.5258 80.8108 19.8993C79.7162 20.2589 78.8295 20.8052 78.1506 21.5382C77.4855 22.2573 77.1529 23.2393 77.1529 24.484C77.1529 26.1852 77.7834 27.4714 79.0442 28.3427C80.319 29.2002 81.9332 29.629 83.8868 29.629Z"></path></mask><path d="M1 33.2802V1.41491H5.73864V6.39386H6.15431C6.81938 4.69272 7.8932 3.37192 9.37575 2.43145C10.8583 1.47715 12.6388 1 14.7171 1C16.8232 1 18.5759 1.47715 19.9753 2.43145C21.3886 3.37192 22.4901 4.69272 23.2799 6.39386H23.6125C24.4299 4.74804 25.6562 3.44107 27.2911 2.47294C28.9261 1.49098 30.8867 1 33.1729 1C36.0271 1 38.3618 1.89206 40.1769 3.67618C41.992 5.44648 42.8996 8.20564 42.8996 11.9537V33.2802H37.9946V11.9537C37.9946 9.60252 37.3504 7.92212 36.0618 6.9125C34.7732 5.90288 33.256 5.39807 31.5102 5.39807C29.2656 5.39807 27.5267 6.07576 26.2935 7.43114C25.0604 8.77269 24.4438 10.4738 24.4438 12.5346V33.2802H19.4558V11.4558C19.4558 9.64401 18.8669 8.1849 17.6892 7.07847C16.5114 5.9582 14.9942 5.39807 13.1376 5.39807C11.8628 5.39807 10.6713 5.73692 9.56281 6.41461C8.46821 7.0923 7.58144 8.03277 6.90252 9.23601C6.23744 10.4254 5.90491 11.8016 5.90491 13.3644V33.2802H1Z" fill="#111111"></path><path d="M69.2517 8.55141L64.8456 9.79614C64.5685 9.06313 64.1598 8.35086 63.6194 7.65934C63.0929 6.95399 62.3724 6.37311 61.4579 5.91671C60.5434 5.46031 59.3726 5.23211 57.9455 5.23211C55.9919 5.23211 54.3638 5.68159 53.0614 6.58057C51.7728 7.46572 51.1285 8.5929 51.1285 9.96211C51.1285 11.1792 51.5719 12.1404 52.4587 12.8457C53.3454 13.5511 54.731 14.1389 56.6154 14.6091L61.354 15.7709C64.2083 16.4624 66.3351 17.5204 67.7345 18.945C69.134 20.3557 69.8337 22.1744 69.8337 24.4011C69.8337 26.2267 69.3072 27.8587 68.2541 29.297C67.2149 30.7354 65.7601 31.8695 63.8896 32.6993C62.0191 33.5291 59.8437 33.944 57.3636 33.944C54.1075 33.944 51.4126 33.2387 49.2788 31.828C47.145 30.4173 45.7941 28.3566 45.226 25.6458L49.8815 24.484C50.3249 26.199 51.1632 27.4852 52.3963 28.3427C53.6433 29.2002 55.2714 29.629 57.2804 29.629C59.5666 29.629 61.3817 29.1449 62.7257 28.1768C64.0836 27.1948 64.7625 26.0192 64.7625 24.65C64.7625 23.5436 64.3745 22.6169 63.5986 21.8701C62.8227 21.1094 61.6311 20.5424 60.0239 20.169L54.7033 18.9242C51.7797 18.2327 49.6321 17.1608 48.2604 15.7086C46.9025 14.2426 46.2236 12.4101 46.2236 10.2111C46.2236 8.4131 46.7293 6.8226 47.7408 5.43956C48.7661 4.05652 50.1586 2.97083 51.9183 2.1825C53.6918 1.39417 55.7009 1 57.9455 1C61.1046 1 63.5848 1.69152 65.386 3.07456C67.2011 4.4576 68.4897 6.28322 69.2517 8.55141Z" fill="#111111"></path><path d="M83.1386 34.027C81.1157 34.027 79.2798 33.6467 77.631 32.886C75.9821 32.1115 74.6728 30.9982 73.7029 29.546C72.733 28.08 72.248 26.3097 72.248 24.2351C72.248 22.4095 72.6083 20.9296 73.3288 19.7955C74.0493 18.6476 75.0122 17.7486 76.2177 17.0986C77.4231 16.4486 78.7533 15.9645 80.2081 15.6464C81.6768 15.3145 83.1524 15.0517 84.635 14.8581C86.5748 14.6091 88.1474 14.4224 89.3529 14.2979C90.5722 14.1596 91.4589 13.9314 92.0131 13.6133C92.5812 13.2952 92.8653 12.742 92.8653 11.9537V11.7877C92.8653 9.74082 92.3041 8.15032 91.1818 7.01623C90.0734 5.88214 88.3899 5.31509 86.1314 5.31509C83.7898 5.31509 81.9539 5.82681 80.6238 6.85026C79.2936 7.87372 78.3584 8.96632 77.818 10.1281L73.1625 8.46842C73.9939 6.53216 75.1023 5.02465 76.4879 3.94588C77.8873 2.85327 79.4114 2.0926 81.0602 1.66386C82.7229 1.22129 84.3579 1 85.9652 1C86.9905 1 88.1682 1.12447 89.4983 1.37342C90.8423 1.60854 92.1379 2.09952 93.3849 2.84636C94.6457 3.5932 95.6918 4.72038 96.5232 6.2279C97.3545 7.73541 97.7702 9.75465 97.7702 12.2856V33.2802H92.8653V28.9651H92.6159C92.2833 29.6566 91.7291 30.3965 90.9532 31.1849C90.1773 31.9732 89.145 32.644 87.8564 33.1972C86.5679 33.7504 84.9953 34.027 83.1386 34.027ZM83.8868 29.629C85.8266 29.629 87.4616 29.2486 88.7917 28.4879C90.1357 27.7273 91.1472 26.7453 91.8261 25.5421C92.5189 24.3388 92.8653 23.0733 92.8653 21.7456V17.2646C92.6574 17.5135 92.2002 17.7417 91.4936 17.9492C90.8008 18.1428 89.9972 18.3157 89.0827 18.4678C88.1821 18.6061 87.3022 18.7306 86.4432 18.8412C85.598 18.938 84.9121 19.021 84.3856 19.0902C83.1109 19.2561 81.9193 19.5258 80.8108 19.8993C79.7162 20.2589 78.8295 20.8052 78.1506 21.5382C77.4855 22.2573 77.1529 23.2393 77.1529 24.484C77.1529 26.1852 77.7834 27.4714 79.0442 28.3427C80.319 29.2002 81.9332 29.629 83.8868 29.629Z" fill="#111111"></path><path d="M1 33.2802V1.41491H5.73864V6.39386H6.15431C6.81938 4.69272 7.8932 3.37192 9.37575 2.43145C10.8583 1.47715 12.6388 1 14.7171 1C16.8232 1 18.5759 1.47715 19.9753 2.43145C21.3886 3.37192 22.4901 4.69272 23.2799 6.39386H23.6125C24.4299 4.74804 25.6562 3.44107 27.2911 2.47294C28.9261 1.49098 30.8867 1 33.1729 1C36.0271 1 38.3618 1.89206 40.1769 3.67618C41.992 5.44648 42.8996 8.20564 42.8996 11.9537V33.2802H37.9946V11.9537C37.9946 9.60252 37.3504 7.92212 36.0618 6.9125C34.7732 5.90288 33.256 5.39807 31.5102 5.39807C29.2656 5.39807 27.5267 6.07576 26.2935 7.43114C25.0604 8.77269 24.4438 10.4738 24.4438 12.5346V33.2802H19.4558V11.4558C19.4558 9.64401 18.8669 8.1849 17.6892 7.07847C16.5114 5.9582 14.9942 5.39807 13.1376 5.39807C11.8628 5.39807 10.6713 5.73692 9.56281 6.41461C8.46821 7.0923 7.58144 8.03277 6.90252 9.23601C6.23744 10.4254 5.90491 11.8016 5.90491 13.3644V33.2802H1Z" stroke="#111111" stroke-width="0.2" mask="url(#path-2-outside-1_26_2250)"></path><path d="M69.2517 8.55141L64.8456 9.79614C64.5685 9.06313 64.1598 8.35086 63.6194 7.65934C63.0929 6.95399 62.3724 6.37311 61.4579 5.91671C60.5434 5.46031 59.3726 5.23211 57.9455 5.23211C55.9919 5.23211 54.3638 5.68159 53.0614 6.58057C51.7728 7.46572 51.1285 8.5929 51.1285 9.96211C51.1285 11.1792 51.5719 12.1404 52.4587 12.8457C53.3454 13.5511 54.731 14.1389 56.6154 14.6091L61.354 15.7709C64.2083 16.4624 66.3351 17.5204 67.7345 18.945C69.134 20.3557 69.8337 22.1744 69.8337 24.4011C69.8337 26.2267 69.3072 27.8587 68.2541 29.297C67.2149 30.7354 65.7601 31.8695 63.8896 32.6993C62.0191 33.5291 59.8437 33.944 57.3636 33.944C54.1075 33.944 51.4126 33.2387 49.2788 31.828C47.145 30.4173 45.7941 28.3566 45.226 25.6458L49.8815 24.484C50.3249 26.199 51.1632 27.4852 52.3963 28.3427C53.6433 29.2002 55.2714 29.629 57.2804 29.629C59.5666 29.629 61.3817 29.1449 62.7257 28.1768C64.0836 27.1948 64.7625 26.0192 64.7625 24.65C64.7625 23.5436 64.3745 22.6169 63.5986 21.8701C62.8227 21.1094 61.6311 20.5424 60.0239 20.169L54.7033 18.9242C51.7797 18.2327 49.6321 17.1608 48.2604 15.7086C46.9025 14.2426 46.2236 12.4101 46.2236 10.2111C46.2236 8.4131 46.7293 6.8226 47.7408 5.43956C48.7661 4.05652 50.1586 2.97083 51.9183 2.1825C53.6918 1.39417 55.7009 1 57.9455 1C61.1046 1 63.5848 1.69152 65.386 3.07456C67.2011 4.4576 68.4897 6.28322 69.2517 8.55141Z" stroke="#111111" stroke-width="0.2" mask="url(#path-2-outside-1_26_2250)"></path><path d="M83.1386 34.027C81.1157 34.027 79.2798 33.6467 77.631 32.886C75.9821 32.1115 74.6728 30.9982 73.7029 29.546C72.733 28.08 72.248 26.3097 72.248 24.2351C72.248 22.4095 72.6083 20.9296 73.3288 19.7955C74.0493 18.6476 75.0122 17.7486 76.2177 17.0986C77.4231 16.4486 78.7533 15.9645 80.2081 15.6464C81.6768 15.3145 83.1524 15.0517 84.635 14.8581C86.5748 14.6091 88.1474 14.4224 89.3529 14.2979C90.5722 14.1596 91.4589 13.9314 92.0131 13.6133C92.5812 13.2952 92.8653 12.742 92.8653 11.9537V11.7877C92.8653 9.74082 92.3041 8.15032 91.1818 7.01623C90.0734 5.88214 88.3899 5.31509 86.1314 5.31509C83.7898 5.31509 81.9539 5.82681 80.6238 6.85026C79.2936 7.87372 78.3584 8.96632 77.818 10.1281L73.1625 8.46842C73.9939 6.53216 75.1023 5.02465 76.4879 3.94588C77.8873 2.85327 79.4114 2.0926 81.0602 1.66386C82.7229 1.22129 84.3579 1 85.9652 1C86.9905 1 88.1682 1.12447 89.4983 1.37342C90.8423 1.60854 92.1379 2.09952 93.3849 2.84636C94.6457 3.5932 95.6918 4.72038 96.5232 6.2279C97.3545 7.73541 97.7702 9.75465 97.7702 12.2856V33.2802H92.8653V28.9651H92.6159C92.2833 29.6566 91.7291 30.3965 90.9532 31.1849C90.1773 31.9732 89.145 32.644 87.8564 33.1972C86.5679 33.7504 84.9953 34.027 83.1386 34.027ZM83.8868 29.629C85.8266 29.629 87.4616 29.2486 88.7917 28.4879C90.1357 27.7273 91.1472 26.7453 91.8261 25.5421C92.5189 24.3388 92.8653 23.0733 92.8653 21.7456V17.2646C92.6574 17.5135 92.2002 17.7417 91.4936 17.9492C90.8008 18.1428 89.9972 18.3157 89.0827 18.4678C88.1821 18.6061 87.3022 18.7306 86.4432 18.8412C85.598 18.938 84.9121 19.021 84.3856 19.0902C83.1109 19.2561 81.9193 19.5258 80.8108 19.8993C79.7162 20.2589 78.8295 20.8052 78.1506 21.5382C77.4855 22.2573 77.1529 23.2393 77.1529 24.484C77.1529 26.1852 77.7834 27.4714 79.0442 28.3427C80.319 29.2002 81.9332 29.629 83.8868 29.629Z" stroke="#111111" stroke-width="0.2" mask="url(#path-2-outside-1_26_2250)"></path><mask id="path-3-outside-2_26_2250" maskUnits="userSpaceOnUse" x="0" y="38.1084" width="174" height="57" fill="black"><rect fill="white" y="38.1084" width="174" height="57"></rect><path d="M14.4087 83.1644C11.7763 83.1644 9.45243 82.5 7.43701 81.1712C5.42159 79.8287 3.8449 77.9382 2.70694 75.4998C1.56898 73.0477 1 70.1503 1 66.8078C1 63.4926 1.56898 60.6158 2.70694 58.1774C3.8449 55.739 5.42845 53.8554 7.45758 52.5266C9.48671 51.1978 11.8312 50.5334 14.491 50.5334C16.5475 50.5334 18.1722 50.8758 19.365 51.5608C20.5715 52.232 21.4901 52.9992 22.1208 53.8622C22.7652 54.7116 23.2656 55.4102 23.6221 55.9582H24.0334V40.4235H28.8869V82.5068H24.1979V77.6574H23.6221C23.2656 78.2327 22.7583 78.9588 22.1002 79.8355C21.4421 80.6985 20.503 81.4725 19.2828 82.1575C18.0625 82.8287 16.4379 83.1644 14.4087 83.1644ZM15.0668 78.8081C17.0137 78.8081 18.6589 78.3012 20.0026 77.2875C21.3462 76.2601 22.3676 74.8422 23.0668 73.034C23.766 71.212 24.1157 69.1092 24.1157 66.7256C24.1157 64.3693 23.7729 62.3076 23.0874 60.5405C22.4019 58.7596 21.3873 57.376 20.0437 56.3897C18.7001 55.3897 17.0411 54.8896 15.0668 54.8896C13.0103 54.8896 11.2965 55.417 9.92544 56.4719C8.56811 57.513 7.54669 58.9308 6.86118 60.7254C6.18937 62.5063 5.85347 64.5063 5.85347 66.7256C5.85347 68.9722 6.19623 71.0134 6.88174 72.849C7.58097 74.671 8.60925 76.1231 9.96657 77.2053C11.3376 78.2738 13.0377 78.8081 15.0668 78.8081Z"></path><path d="M48.7793 83.1644C45.7356 83.1644 43.1101 82.4931 40.9027 81.1506C38.7091 79.7944 37.0159 77.904 35.823 75.4792C34.644 73.0408 34.0544 70.2051 34.0544 66.9722C34.0544 63.7392 34.644 60.8898 35.823 58.424C37.0159 55.9445 38.6748 54.0129 40.7999 52.6293C42.9387 51.232 45.434 50.5334 48.2858 50.5334C49.931 50.5334 51.5557 50.8073 53.1598 51.3553C54.7639 51.9033 56.2241 52.7937 57.5403 54.0266C58.8565 55.2458 59.9053 56.8623 60.6868 58.876C61.4683 60.8898 61.859 63.3693 61.859 66.3146V68.3695H37.5094V64.1776H56.9233C56.9233 62.3967 56.5668 60.8076 55.8539 59.4103C55.1547 58.013 54.1538 56.9102 52.8513 56.102C51.5626 55.2938 50.0407 54.8896 48.2858 54.8896C46.3526 54.8896 44.6799 55.3691 43.2678 56.328C41.8693 57.2733 40.7931 58.5062 40.039 60.0268C39.2849 61.5474 38.9079 63.1775 38.9079 64.9173V67.7119C38.9079 70.0955 39.3192 72.1161 40.1418 73.7737C40.9782 75.4176 42.1367 76.671 43.6174 77.5341C45.0981 78.3834 46.8188 78.8081 48.7793 78.8081C50.0544 78.8081 51.2061 78.63 52.2344 78.2738C53.2763 77.904 54.1744 77.356 54.9284 76.6299C55.6825 75.8902 56.2652 74.9724 56.6765 73.8764L61.3654 75.1916C60.8719 76.7806 60.0424 78.1779 58.877 79.3834C57.7116 80.5753 56.2721 81.5068 54.5583 82.178C52.8445 82.8356 50.9182 83.1644 48.7793 83.1644Z"></path><path d="M88.1455 58.013L83.7856 59.2459C83.5114 58.5199 83.1069 57.8144 82.5722 57.1294C82.0512 56.4308 81.3383 55.8554 80.4334 55.4034C79.5285 54.9513 78.37 54.7253 76.9579 54.7253C75.0247 54.7253 73.4137 55.1705 72.1249 56.0609C70.8499 56.9376 70.2124 58.0541 70.2124 59.4103C70.2124 60.6158 70.6511 61.5679 71.5285 62.2665C72.406 62.9652 73.7771 63.5474 75.6417 64.0132L80.3306 65.1639C83.1549 65.8488 85.2595 66.8968 86.6442 68.3078C88.029 69.7051 88.7213 71.5065 88.7213 73.7121C88.7213 75.5203 88.2003 77.1368 87.1584 78.5615C86.1301 79.9862 84.6905 81.1095 82.8396 81.9315C80.9887 82.7534 78.8362 83.1644 76.382 83.1644C73.1601 83.1644 70.4934 82.4657 68.382 81.0684C66.2706 79.6711 64.9339 77.63 64.3717 74.945L68.9784 73.7943C69.4172 75.4929 70.2466 76.7669 71.4669 77.6163C72.7008 78.4656 74.3118 78.8903 76.2998 78.8903C78.562 78.8903 80.358 78.4108 81.6879 77.4519C83.0315 76.4793 83.7034 75.3148 83.7034 73.9586C83.7034 72.8627 83.3195 71.9449 82.5517 71.2051C81.7839 70.4517 80.6048 69.89 79.0144 69.5202L73.7496 68.2873C70.8567 67.6023 68.7316 66.5406 67.3743 65.1022C66.0307 63.6501 65.3589 61.835 65.3589 59.6569C65.3589 57.876 65.8593 56.3006 66.8602 54.9307C67.8747 53.5608 69.2526 52.4855 70.9938 51.7046C72.7488 50.9238 74.7368 50.5334 76.9579 50.5334C80.0838 50.5334 82.538 51.2183 84.3203 52.5882C86.1164 53.9581 87.3914 55.7664 88.1455 58.013Z"></path><path d="M92.9691 82.5068V50.9443H97.8225V82.5068H92.9691ZM95.4369 45.6839C94.4909 45.6839 93.6752 45.362 92.9896 44.7181C92.3178 44.0743 91.9819 43.3003 91.9819 42.3962C91.9819 41.492 92.3178 40.718 92.9896 40.0742C93.6752 39.4303 94.4909 39.1084 95.4369 39.1084C96.3829 39.1084 97.1919 39.4303 97.8637 40.0742C98.5492 40.718 98.8919 41.492 98.8919 42.3962C98.8919 43.3003 98.5492 44.0743 97.8637 44.7181C97.1919 45.362 96.3829 45.6839 95.4369 45.6839Z"></path><path d="M117.02 95.0003C114.675 95.0003 112.66 94.6989 110.973 94.0962C109.287 93.5071 107.882 92.7263 106.757 91.7536C105.647 90.7947 104.762 89.7673 104.104 88.6714L107.971 85.959C108.409 86.5343 108.965 87.1919 109.637 87.9316C110.308 88.6851 111.227 89.3358 112.392 89.8837C113.571 90.4454 115.114 90.7262 117.02 90.7262C119.57 90.7262 121.674 90.1098 123.333 88.8768C124.992 87.6439 125.822 85.7124 125.822 83.0822V76.671H125.41C125.054 77.2464 124.547 77.9587 123.888 78.8081C123.244 79.6437 122.312 80.3903 121.091 81.0479C119.885 81.6917 118.253 82.0137 116.197 82.0137C113.647 82.0137 111.357 81.4109 109.328 80.2054C107.313 78.9999 105.715 77.2464 104.536 74.945C103.371 72.6435 102.788 69.8489 102.788 66.5612C102.788 63.3282 103.357 60.5131 104.495 58.1158C105.633 55.7047 107.217 53.8417 109.246 52.5266C111.275 51.1978 113.619 50.5334 116.279 50.5334C118.336 50.5334 119.967 50.8758 121.174 51.5608C122.394 52.232 123.326 52.9992 123.971 53.8622C124.629 54.7116 125.136 55.4102 125.493 55.9582H125.986V50.9443H130.675V83.411C130.675 86.1234 130.058 88.3289 128.824 90.0276C127.604 91.7399 125.959 92.9934 123.888 93.7879C121.832 94.5962 119.542 95.0003 117.02 95.0003ZM116.855 77.6574C118.802 77.6574 120.447 77.2122 121.791 76.3217C123.134 75.4313 124.156 74.1504 124.855 72.4792C125.554 70.8079 125.904 68.8078 125.904 66.479C125.904 64.205 125.561 62.1981 124.876 60.4583C124.19 58.7185 123.175 57.3555 121.832 56.3691C120.488 55.3828 118.829 54.8896 116.855 54.8896C114.798 54.8896 113.085 55.4102 111.714 56.4513C110.356 57.4924 109.335 58.8897 108.649 60.6432C107.978 62.3967 107.642 64.3419 107.642 66.479C107.642 68.6708 107.984 70.6092 108.67 72.2942C109.369 73.9655 110.397 75.2806 111.755 76.2395C113.126 77.1848 114.826 77.6574 116.855 77.6574Z"></path><path d="M141.033 63.52V82.5068H136.179V50.9443H140.868V55.876H141.279C142.02 54.2732 143.144 52.9855 144.652 52.0129C146.16 51.0265 148.107 50.5334 150.493 50.5334C152.632 50.5334 154.503 50.9717 156.107 51.8485C157.711 52.7115 158.959 54.0266 159.85 55.7938C160.741 57.5473 161.187 59.7665 161.187 62.4515V82.5068H156.333V62.7803C156.333 60.3008 155.689 58.3692 154.4 56.9856C153.111 55.5883 151.343 54.8896 149.094 54.8896C147.545 54.8896 146.16 55.2253 144.94 55.8965C143.734 56.5678 142.781 57.5473 142.081 58.835C141.382 60.1227 141.033 61.6843 141.033 63.52Z"></path><path d="M169.974 82.8356C168.959 82.8356 168.089 82.4726 167.362 81.7465C166.635 81.0205 166.272 80.1506 166.272 79.1369C166.272 78.1231 166.635 77.2532 167.362 76.5272C168.089 75.8012 168.959 75.4381 169.974 75.4381C170.988 75.4381 171.859 75.8012 172.586 76.5272C173.312 77.2532 173.676 78.1231 173.676 79.1369C173.676 79.8081 173.504 80.4246 173.162 80.9862C172.832 81.5479 172.387 81.9999 171.825 82.3424C171.276 82.6712 170.659 82.8356 169.974 82.8356Z"></path></mask><path d="M14.4087 83.1644C11.7763 83.1644 9.45243 82.5 7.43701 81.1712C5.42159 79.8287 3.8449 77.9382 2.70694 75.4998C1.56898 73.0477 1 70.1503 1 66.8078C1 63.4926 1.56898 60.6158 2.70694 58.1774C3.8449 55.739 5.42845 53.8554 7.45758 52.5266C9.48671 51.1978 11.8312 50.5334 14.491 50.5334C16.5475 50.5334 18.1722 50.8758 19.365 51.5608C20.5715 52.232 21.4901 52.9992 22.1208 53.8622C22.7652 54.7116 23.2656 55.4102 23.6221 55.9582H24.0334V40.4235H28.8869V82.5068H24.1979V77.6574H23.6221C23.2656 78.2327 22.7583 78.9588 22.1002 79.8355C21.4421 80.6985 20.503 81.4725 19.2828 82.1575C18.0625 82.8287 16.4379 83.1644 14.4087 83.1644ZM15.0668 78.8081C17.0137 78.8081 18.6589 78.3012 20.0026 77.2875C21.3462 76.2601 22.3676 74.8422 23.0668 73.034C23.766 71.212 24.1157 69.1092 24.1157 66.7256C24.1157 64.3693 23.7729 62.3076 23.0874 60.5405C22.4019 58.7596 21.3873 57.376 20.0437 56.3897C18.7001 55.3897 17.0411 54.8896 15.0668 54.8896C13.0103 54.8896 11.2965 55.417 9.92544 56.4719C8.56811 57.513 7.54669 58.9308 6.86118 60.7254C6.18937 62.5063 5.85347 64.5063 5.85347 66.7256C5.85347 68.9722 6.19623 71.0134 6.88174 72.849C7.58097 74.671 8.60925 76.1231 9.96657 77.2053C11.3376 78.2738 13.0377 78.8081 15.0668 78.8081Z" fill="#111111"></path><path d="M48.7793 83.1644C45.7356 83.1644 43.1101 82.4931 40.9027 81.1506C38.7091 79.7944 37.0159 77.904 35.823 75.4792C34.644 73.0408 34.0544 70.2051 34.0544 66.9722C34.0544 63.7392 34.644 60.8898 35.823 58.424C37.0159 55.9445 38.6748 54.0129 40.7999 52.6293C42.9387 51.232 45.434 50.5334 48.2858 50.5334C49.931 50.5334 51.5557 50.8073 53.1598 51.3553C54.7639 51.9033 56.2241 52.7937 57.5403 54.0266C58.8565 55.2458 59.9053 56.8623 60.6868 58.876C61.4683 60.8898 61.859 63.3693 61.859 66.3146V68.3695H37.5094V64.1776H56.9233C56.9233 62.3967 56.5668 60.8076 55.8539 59.4103C55.1547 58.013 54.1538 56.9102 52.8513 56.102C51.5626 55.2938 50.0407 54.8896 48.2858 54.8896C46.3526 54.8896 44.6799 55.3691 43.2678 56.328C41.8693 57.2733 40.7931 58.5062 40.039 60.0268C39.2849 61.5474 38.9079 63.1775 38.9079 64.9173V67.7119C38.9079 70.0955 39.3192 72.1161 40.1418 73.7737C40.9782 75.4176 42.1367 76.671 43.6174 77.5341C45.0981 78.3834 46.8188 78.8081 48.7793 78.8081C50.0544 78.8081 51.2061 78.63 52.2344 78.2738C53.2763 77.904 54.1744 77.356 54.9284 76.6299C55.6825 75.8902 56.2652 74.9724 56.6765 73.8764L61.3654 75.1916C60.8719 76.7806 60.0424 78.1779 58.877 79.3834C57.7116 80.5753 56.2721 81.5068 54.5583 82.178C52.8445 82.8356 50.9182 83.1644 48.7793 83.1644Z" fill="#111111"></path><path d="M88.1455 58.013L83.7856 59.2459C83.5114 58.5199 83.1069 57.8144 82.5722 57.1294C82.0512 56.4308 81.3383 55.8554 80.4334 55.4034C79.5285 54.9513 78.37 54.7253 76.9579 54.7253C75.0247 54.7253 73.4137 55.1705 72.1249 56.0609C70.8499 56.9376 70.2124 58.0541 70.2124 59.4103C70.2124 60.6158 70.6511 61.5679 71.5285 62.2665C72.406 62.9652 73.7771 63.5474 75.6417 64.0132L80.3306 65.1639C83.1549 65.8488 85.2595 66.8968 86.6442 68.3078C88.029 69.7051 88.7213 71.5065 88.7213 73.7121C88.7213 75.5203 88.2003 77.1368 87.1584 78.5615C86.1301 79.9862 84.6905 81.1095 82.8396 81.9315C80.9887 82.7534 78.8362 83.1644 76.382 83.1644C73.1601 83.1644 70.4934 82.4657 68.382 81.0684C66.2706 79.6711 64.9339 77.63 64.3717 74.945L68.9784 73.7943C69.4172 75.4929 70.2466 76.7669 71.4669 77.6163C72.7008 78.4656 74.3118 78.8903 76.2998 78.8903C78.562 78.8903 80.358 78.4108 81.6879 77.4519C83.0315 76.4793 83.7034 75.3148 83.7034 73.9586C83.7034 72.8627 83.3195 71.9449 82.5517 71.2051C81.7839 70.4517 80.6048 69.89 79.0144 69.5202L73.7496 68.2873C70.8567 67.6023 68.7316 66.5406 67.3743 65.1022C66.0307 63.6501 65.3589 61.835 65.3589 59.6569C65.3589 57.876 65.8593 56.3006 66.8602 54.9307C67.8747 53.5608 69.2526 52.4855 70.9938 51.7046C72.7488 50.9238 74.7368 50.5334 76.9579 50.5334C80.0838 50.5334 82.538 51.2183 84.3203 52.5882C86.1164 53.9581 87.3914 55.7664 88.1455 58.013Z" fill="#111111"></path><path d="M92.9691 82.5068V50.9443H97.8225V82.5068H92.9691ZM95.4369 45.6839C94.4909 45.6839 93.6752 45.362 92.9896 44.7181C92.3178 44.0743 91.9819 43.3003 91.9819 42.3962C91.9819 41.492 92.3178 40.718 92.9896 40.0742C93.6752 39.4303 94.4909 39.1084 95.4369 39.1084C96.3829 39.1084 97.1919 39.4303 97.8637 40.0742C98.5492 40.718 98.8919 41.492 98.8919 42.3962C98.8919 43.3003 98.5492 44.0743 97.8637 44.7181C97.1919 45.362 96.3829 45.6839 95.4369 45.6839Z" fill="#111111"></path><path d="M117.02 95.0003C114.675 95.0003 112.66 94.6989 110.973 94.0962C109.287 93.5071 107.882 92.7263 106.757 91.7536C105.647 90.7947 104.762 89.7673 104.104 88.6714L107.971 85.959C108.409 86.5343 108.965 87.1919 109.637 87.9316C110.308 88.6851 111.227 89.3358 112.392 89.8837C113.571 90.4454 115.114 90.7262 117.02 90.7262C119.57 90.7262 121.674 90.1098 123.333 88.8768C124.992 87.6439 125.822 85.7124 125.822 83.0822V76.671H125.41C125.054 77.2464 124.547 77.9587 123.888 78.8081C123.244 79.6437 122.312 80.3903 121.091 81.0479C119.885 81.6917 118.253 82.0137 116.197 82.0137C113.647 82.0137 111.357 81.4109 109.328 80.2054C107.313 78.9999 105.715 77.2464 104.536 74.945C103.371 72.6435 102.788 69.8489 102.788 66.5612C102.788 63.3282 103.357 60.5131 104.495 58.1158C105.633 55.7047 107.217 53.8417 109.246 52.5266C111.275 51.1978 113.619 50.5334 116.279 50.5334C118.336 50.5334 119.967 50.8758 121.174 51.5608C122.394 52.232 123.326 52.9992 123.971 53.8622C124.629 54.7116 125.136 55.4102 125.493 55.9582H125.986V50.9443H130.675V83.411C130.675 86.1234 130.058 88.3289 128.824 90.0276C127.604 91.7399 125.959 92.9934 123.888 93.7879C121.832 94.5962 119.542 95.0003 117.02 95.0003ZM116.855 77.6574C118.802 77.6574 120.447 77.2122 121.791 76.3217C123.134 75.4313 124.156 74.1504 124.855 72.4792C125.554 70.8079 125.904 68.8078 125.904 66.479C125.904 64.205 125.561 62.1981 124.876 60.4583C124.19 58.7185 123.175 57.3555 121.832 56.3691C120.488 55.3828 118.829 54.8896 116.855 54.8896C114.798 54.8896 113.085 55.4102 111.714 56.4513C110.356 57.4924 109.335 58.8897 108.649 60.6432C107.978 62.3967 107.642 64.3419 107.642 66.479C107.642 68.6708 107.984 70.6092 108.67 72.2942C109.369 73.9655 110.397 75.2806 111.755 76.2395C113.126 77.1848 114.826 77.6574 116.855 77.6574Z" fill="#111111"></path><path d="M141.033 63.52V82.5068H136.179V50.9443H140.868V55.876H141.279C142.02 54.2732 143.144 52.9855 144.652 52.0129C146.16 51.0265 148.107 50.5334 150.493 50.5334C152.632 50.5334 154.503 50.9717 156.107 51.8485C157.711 52.7115 158.959 54.0266 159.85 55.7938C160.741 57.5473 161.187 59.7665 161.187 62.4515V82.5068H156.333V62.7803C156.333 60.3008 155.689 58.3692 154.4 56.9856C153.111 55.5883 151.343 54.8896 149.094 54.8896C147.545 54.8896 146.16 55.2253 144.94 55.8965C143.734 56.5678 142.781 57.5473 142.081 58.835C141.382 60.1227 141.033 61.6843 141.033 63.52Z" fill="#111111"></path><path d="M169.974 82.8356C168.959 82.8356 168.089 82.4726 167.362 81.7465C166.635 81.0205 166.272 80.1506 166.272 79.1369C166.272 78.1231 166.635 77.2532 167.362 76.5272C168.089 75.8012 168.959 75.4381 169.974 75.4381C170.988 75.4381 171.859 75.8012 172.586 76.5272C173.312 77.2532 173.676 78.1231 173.676 79.1369C173.676 79.8081 173.504 80.4246 173.162 80.9862C172.832 81.5479 172.387 81.9999 171.825 82.3424C171.276 82.6712 170.659 82.8356 169.974 82.8356Z" fill="#111111"></path><path d="M14.4087 83.1644C11.7763 83.1644 9.45243 82.5 7.43701 81.1712C5.42159 79.8287 3.8449 77.9382 2.70694 75.4998C1.56898 73.0477 1 70.1503 1 66.8078C1 63.4926 1.56898 60.6158 2.70694 58.1774C3.8449 55.739 5.42845 53.8554 7.45758 52.5266C9.48671 51.1978 11.8312 50.5334 14.491 50.5334C16.5475 50.5334 18.1722 50.8758 19.365 51.5608C20.5715 52.232 21.4901 52.9992 22.1208 53.8622C22.7652 54.7116 23.2656 55.4102 23.6221 55.9582H24.0334V40.4235H28.8869V82.5068H24.1979V77.6574H23.6221C23.2656 78.2327 22.7583 78.9588 22.1002 79.8355C21.4421 80.6985 20.503 81.4725 19.2828 82.1575C18.0625 82.8287 16.4379 83.1644 14.4087 83.1644ZM15.0668 78.8081C17.0137 78.8081 18.6589 78.3012 20.0026 77.2875C21.3462 76.2601 22.3676 74.8422 23.0668 73.034C23.766 71.212 24.1157 69.1092 24.1157 66.7256C24.1157 64.3693 23.7729 62.3076 23.0874 60.5405C22.4019 58.7596 21.3873 57.376 20.0437 56.3897C18.7001 55.3897 17.0411 54.8896 15.0668 54.8896C13.0103 54.8896 11.2965 55.417 9.92544 56.4719C8.56811 57.513 7.54669 58.9308 6.86118 60.7254C6.18937 62.5063 5.85347 64.5063 5.85347 66.7256C5.85347 68.9722 6.19623 71.0134 6.88174 72.849C7.58097 74.671 8.60925 76.1231 9.96657 77.2053C11.3376 78.2738 13.0377 78.8081 15.0668 78.8081Z" stroke="#111111" stroke-width="0.2" mask="url(#path-3-outside-2_26_2250)"></path><path d="M48.7793 83.1644C45.7356 83.1644 43.1101 82.4931 40.9027 81.1506C38.7091 79.7944 37.0159 77.904 35.823 75.4792C34.644 73.0408 34.0544 70.2051 34.0544 66.9722C34.0544 63.7392 34.644 60.8898 35.823 58.424C37.0159 55.9445 38.6748 54.0129 40.7999 52.6293C42.9387 51.232 45.434 50.5334 48.2858 50.5334C49.931 50.5334 51.5557 50.8073 53.1598 51.3553C54.7639 51.9033 56.2241 52.7937 57.5403 54.0266C58.8565 55.2458 59.9053 56.8623 60.6868 58.876C61.4683 60.8898 61.859 63.3693 61.859 66.3146V68.3695H37.5094V64.1776H56.9233C56.9233 62.3967 56.5668 60.8076 55.8539 59.4103C55.1547 58.013 54.1538 56.9102 52.8513 56.102C51.5626 55.2938 50.0407 54.8896 48.2858 54.8896C46.3526 54.8896 44.6799 55.3691 43.2678 56.328C41.8693 57.2733 40.7931 58.5062 40.039 60.0268C39.2849 61.5474 38.9079 63.1775 38.9079 64.9173V67.7119C38.9079 70.0955 39.3192 72.1161 40.1418 73.7737C40.9782 75.4176 42.1367 76.671 43.6174 77.5341C45.0981 78.3834 46.8188 78.8081 48.7793 78.8081C50.0544 78.8081 51.2061 78.63 52.2344 78.2738C53.2763 77.904 54.1744 77.356 54.9284 76.6299C55.6825 75.8902 56.2652 74.9724 56.6765 73.8764L61.3654 75.1916C60.8719 76.7806 60.0424 78.1779 58.877 79.3834C57.7116 80.5753 56.2721 81.5068 54.5583 82.178C52.8445 82.8356 50.9182 83.1644 48.7793 83.1644Z" stroke="#111111" stroke-width="0.2" mask="url(#path-3-outside-2_26_2250)"></path><path d="M88.1455 58.013L83.7856 59.2459C83.5114 58.5199 83.1069 57.8144 82.5722 57.1294C82.0512 56.4308 81.3383 55.8554 80.4334 55.4034C79.5285 54.9513 78.37 54.7253 76.9579 54.7253C75.0247 54.7253 73.4137 55.1705 72.1249 56.0609C70.8499 56.9376 70.2124 58.0541 70.2124 59.4103C70.2124 60.6158 70.6511 61.5679 71.5285 62.2665C72.406 62.9652 73.7771 63.5474 75.6417 64.0132L80.3306 65.1639C83.1549 65.8488 85.2595 66.8968 86.6442 68.3078C88.029 69.7051 88.7213 71.5065 88.7213 73.7121C88.7213 75.5203 88.2003 77.1368 87.1584 78.5615C86.1301 79.9862 84.6905 81.1095 82.8396 81.9315C80.9887 82.7534 78.8362 83.1644 76.382 83.1644C73.1601 83.1644 70.4934 82.4657 68.382 81.0684C66.2706 79.6711 64.9339 77.63 64.3717 74.945L68.9784 73.7943C69.4172 75.4929 70.2466 76.7669 71.4669 77.6163C72.7008 78.4656 74.3118 78.8903 76.2998 78.8903C78.562 78.8903 80.358 78.4108 81.6879 77.4519C83.0315 76.4793 83.7034 75.3148 83.7034 73.9586C83.7034 72.8627 83.3195 71.9449 82.5517 71.2051C81.7839 70.4517 80.6048 69.89 79.0144 69.5202L73.7496 68.2873C70.8567 67.6023 68.7316 66.5406 67.3743 65.1022C66.0307 63.6501 65.3589 61.835 65.3589 59.6569C65.3589 57.876 65.8593 56.3006 66.8602 54.9307C67.8747 53.5608 69.2526 52.4855 70.9938 51.7046C72.7488 50.9238 74.7368 50.5334 76.9579 50.5334C80.0838 50.5334 82.538 51.2183 84.3203 52.5882C86.1164 53.9581 87.3914 55.7664 88.1455 58.013Z" stroke="#111111" stroke-width="0.2" mask="url(#path-3-outside-2_26_2250)"></path><path d="M92.9691 82.5068V50.9443H97.8225V82.5068H92.9691ZM95.4369 45.6839C94.4909 45.6839 93.6752 45.362 92.9896 44.7181C92.3178 44.0743 91.9819 43.3003 91.9819 42.3962C91.9819 41.492 92.3178 40.718 92.9896 40.0742C93.6752 39.4303 94.4909 39.1084 95.4369 39.1084C96.3829 39.1084 97.1919 39.4303 97.8637 40.0742C98.5492 40.718 98.8919 41.492 98.8919 42.3962C98.8919 43.3003 98.5492 44.0743 97.8637 44.7181C97.1919 45.362 96.3829 45.6839 95.4369 45.6839Z" stroke="#111111" stroke-width="0.2" mask="url(#path-3-outside-2_26_2250)"></path><path d="M117.02 95.0003C114.675 95.0003 112.66 94.6989 110.973 94.0962C109.287 93.5071 107.882 92.7263 106.757 91.7536C105.647 90.7947 104.762 89.7673 104.104 88.6714L107.971 85.959C108.409 86.5343 108.965 87.1919 109.637 87.9316C110.308 88.6851 111.227 89.3358 112.392 89.8837C113.571 90.4454 115.114 90.7262 117.02 90.7262C119.57 90.7262 121.674 90.1098 123.333 88.8768C124.992 87.6439 125.822 85.7124 125.822 83.0822V76.671H125.41C125.054 77.2464 124.547 77.9587 123.888 78.8081C123.244 79.6437 122.312 80.3903 121.091 81.0479C119.885 81.6917 118.253 82.0137 116.197 82.0137C113.647 82.0137 111.357 81.4109 109.328 80.2054C107.313 78.9999 105.715 77.2464 104.536 74.945C103.371 72.6435 102.788 69.8489 102.788 66.5612C102.788 63.3282 103.357 60.5131 104.495 58.1158C105.633 55.7047 107.217 53.8417 109.246 52.5266C111.275 51.1978 113.619 50.5334 116.279 50.5334C118.336 50.5334 119.967 50.8758 121.174 51.5608C122.394 52.232 123.326 52.9992 123.971 53.8622C124.629 54.7116 125.136 55.4102 125.493 55.9582H125.986V50.9443H130.675V83.411C130.675 86.1234 130.058 88.3289 128.824 90.0276C127.604 91.7399 125.959 92.9934 123.888 93.7879C121.832 94.5962 119.542 95.0003 117.02 95.0003ZM116.855 77.6574C118.802 77.6574 120.447 77.2122 121.791 76.3217C123.134 75.4313 124.156 74.1504 124.855 72.4792C125.554 70.8079 125.904 68.8078 125.904 66.479C125.904 64.205 125.561 62.1981 124.876 60.4583C124.19 58.7185 123.175 57.3555 121.832 56.3691C120.488 55.3828 118.829 54.8896 116.855 54.8896C114.798 54.8896 113.085 55.4102 111.714 56.4513C110.356 57.4924 109.335 58.8897 108.649 60.6432C107.978 62.3967 107.642 64.3419 107.642 66.479C107.642 68.6708 107.984 70.6092 108.67 72.2942C109.369 73.9655 110.397 75.2806 111.755 76.2395C113.126 77.1848 114.826 77.6574 116.855 77.6574Z" stroke="#111111" stroke-width="0.2" mask="url(#path-3-outside-2_26_2250)"></path><path d="M141.033 63.52V82.5068H136.179V50.9443H140.868V55.876H141.279C142.02 54.2732 143.144 52.9855 144.652 52.0129C146.16 51.0265 148.107 50.5334 150.493 50.5334C152.632 50.5334 154.503 50.9717 156.107 51.8485C157.711 52.7115 158.959 54.0266 159.85 55.7938C160.741 57.5473 161.187 59.7665 161.187 62.4515V82.5068H156.333V62.7803C156.333 60.3008 155.689 58.3692 154.4 56.9856C153.111 55.5883 151.343 54.8896 149.094 54.8896C147.545 54.8896 146.16 55.2253 144.94 55.8965C143.734 56.5678 142.781 57.5473 142.081 58.835C141.382 60.1227 141.033 61.6843 141.033 63.52Z" stroke="#111111" stroke-width="0.2" mask="url(#path-3-outside-2_26_2250)"></path><path d="M169.974 82.8356C168.959 82.8356 168.089 82.4726 167.362 81.7465C166.635 81.0205 166.272 80.1506 166.272 79.1369C166.272 78.1231 166.635 77.2532 167.362 76.5272C168.089 75.8012 168.959 75.4381 169.974 75.4381C170.988 75.4381 171.859 75.8012 172.586 76.5272C173.312 77.2532 173.676 78.1231 173.676 79.1369C173.676 79.8081 173.504 80.4246 173.162 80.9862C172.832 81.5479 172.387 81.9999 171.825 82.3424C171.276 82.6712 170.659 82.8356 169.974 82.8356Z" stroke="#111111" stroke-width="0.2" mask="url(#path-3-outside-2_26_2250)"></path><mask id="path-4-outside-3_26_2250" maskUnits="userSpaceOnUse" x="177.985" y="49.4542" width="148" height="45" fill="black"><rect fill="white" x="177.985" y="49.4542" width="148" height="45"></rect><path d="M202.759 58.016L198.399 59.2489C198.125 58.5229 197.721 57.8174 197.186 57.1325C196.665 56.4338 195.952 55.8584 195.047 55.4064C194.142 54.9543 192.984 54.7283 191.571 54.7283C189.638 54.7283 188.027 55.1735 186.739 56.0639C185.463 56.9407 184.826 58.0571 184.826 59.4133C184.826 60.6188 185.265 61.5709 186.142 62.2696C187.02 62.9682 188.391 63.5504 190.255 64.0162L194.944 65.1669C197.769 65.8519 199.873 66.8998 201.258 68.3108C202.643 69.7081 203.335 71.5095 203.335 73.7151C203.335 75.5234 202.814 77.1398 201.772 78.5645C200.744 79.9892 199.304 81.1125 197.453 81.9345C195.602 82.7564 193.45 83.1674 190.996 83.1674C187.774 83.1674 185.107 82.4687 182.996 81.0714C180.884 79.6741 179.547 77.633 178.985 74.948L183.592 73.7973C184.031 75.496 184.86 76.77 186.08 77.6193C187.314 78.4686 188.925 78.8933 190.913 78.8933C193.176 78.8933 194.972 78.4138 196.302 77.4549C197.645 76.4823 198.317 75.3179 198.317 73.9617C198.317 72.8657 197.933 71.9479 197.165 71.2082C196.398 70.4547 195.218 69.8931 193.628 69.5232L188.363 68.2903C185.47 67.6053 183.345 66.5437 181.988 65.1053C180.644 63.6532 179.972 61.8381 179.972 59.6599C179.972 57.879 180.473 56.3037 181.474 54.9338C182.488 53.5639 183.866 52.4885 185.607 51.7076C187.362 50.9268 189.35 50.5364 191.571 50.5364C194.697 50.5364 197.152 51.2213 198.934 52.5912C200.73 53.9611 202.005 55.7694 202.759 58.016Z"></path><path d="M206.849 94.2636V50.8652H211.538V55.879H212.114C212.47 55.331 212.964 54.6324 213.595 53.783C214.239 52.92 215.158 52.1529 216.35 51.4816C217.557 50.7967 219.188 50.4542 221.245 50.4542C223.905 50.4542 226.249 51.1186 228.278 52.4474C230.308 53.7762 231.891 55.6598 233.029 58.0982C234.167 60.5367 234.736 63.4134 234.736 66.7286C234.736 70.0712 234.167 72.9685 233.029 75.4206C231.891 77.859 230.314 79.7495 228.299 81.092C226.284 82.4208 223.96 83.0852 221.327 83.0852C219.298 83.0852 217.673 82.7496 216.453 82.0783C215.233 81.3934 214.294 80.6194 213.636 79.7563C212.978 78.8796 212.47 78.1536 212.114 77.5782H211.703V94.2636H206.849ZM211.62 66.6464C211.62 69.03 211.97 71.1328 212.669 72.9548C213.368 74.7631 214.39 76.1809 215.733 77.2083C217.077 78.2221 218.722 78.7289 220.669 78.7289C222.698 78.7289 224.392 78.1947 225.749 77.1261C227.12 76.0439 228.148 74.5918 228.834 72.7699C229.533 70.9342 229.883 68.893 229.883 66.6464C229.883 64.4272 229.54 62.4271 228.854 60.6462C228.182 58.8517 227.161 57.4338 225.79 56.3927C224.433 55.3379 222.726 54.8105 220.669 54.8105C218.695 54.8105 217.036 55.3105 215.692 56.3105C214.349 57.2968 213.334 58.6804 212.649 60.4613C211.963 62.2285 211.62 64.2902 211.62 66.6464Z"></path><path d="M248.641 83.1674C246.64 83.1674 244.823 82.7907 243.192 82.0372C241.56 81.2701 240.264 80.1673 239.305 78.7289C238.345 77.2768 237.865 75.5234 237.865 73.4685C237.865 71.6602 238.222 70.1944 238.935 69.0711C239.647 67.9341 240.6 67.0437 241.793 66.3998C242.986 65.756 244.302 65.2765 245.742 64.9614C247.195 64.6327 248.655 64.3724 250.122 64.1806C252.042 63.934 253.598 63.7491 254.791 63.6258C255.997 63.4888 256.875 63.2627 257.423 62.9477C257.985 62.6326 258.266 62.0846 258.266 61.3038V61.1394C258.266 59.112 257.711 57.5366 256.6 56.4133C255.504 55.2899 253.838 54.7283 251.603 54.7283C249.286 54.7283 247.469 55.2351 246.153 56.2489C244.837 57.2626 243.911 58.3448 243.377 59.4955L238.77 57.8516C239.593 55.9338 240.689 54.4406 242.06 53.3721C243.445 52.2899 244.953 51.5364 246.585 51.1117C248.23 50.6734 249.848 50.4542 251.438 50.4542C252.453 50.4542 253.618 50.5775 254.935 50.8241C256.264 51.0569 257.546 51.5433 258.78 52.283C260.028 53.0228 261.063 54.1392 261.886 55.6324C262.708 57.1256 263.12 59.1257 263.12 61.6326V82.4276H258.266V78.1536H258.019C257.69 78.8385 257.142 79.5714 256.374 80.3522C255.606 81.1331 254.585 81.7975 253.31 82.3455C252.035 82.8934 250.479 83.1674 248.641 83.1674ZM249.382 78.8111C251.301 78.8111 252.919 78.4344 254.235 77.6809C255.565 76.9275 256.566 75.9549 257.238 74.7631C257.923 73.5712 258.266 72.3178 258.266 71.0027V66.5642C258.06 66.8108 257.608 67.0368 256.909 67.2423C256.223 67.4341 255.428 67.6053 254.523 67.756C253.632 67.893 252.761 68.0163 251.911 68.1259C251.075 68.2218 250.396 68.304 249.875 68.3725C248.614 68.5369 247.435 68.804 246.338 69.1739C245.255 69.53 244.378 70.0712 243.706 70.7972C243.048 71.5095 242.719 72.4822 242.719 73.7151C242.719 75.4001 243.342 76.6741 244.59 77.5371C245.851 78.3864 247.449 78.8111 249.382 78.8111Z"></path><path d="M281.766 83.0852C278.804 83.0852 276.254 82.3865 274.115 80.9893C271.976 79.592 270.331 77.6672 269.18 75.2151C268.028 72.763 267.452 69.9616 267.452 66.8108C267.452 63.6052 268.042 60.7764 269.221 58.3243C270.413 55.8584 272.072 53.9337 274.197 52.5501C276.336 51.1528 278.832 50.4542 281.683 50.4542C283.904 50.4542 285.906 50.8652 287.688 51.6871C289.471 52.509 290.931 53.6598 292.069 55.1392C293.207 56.6187 293.913 58.3448 294.187 60.3175H289.334C288.964 58.8791 288.141 57.6051 286.866 56.4954C285.605 55.3721 283.904 54.8105 281.766 54.8105C279.874 54.8105 278.215 55.3036 276.789 56.29C275.377 57.2626 274.273 58.6393 273.478 60.4202C272.696 62.1874 272.305 64.2628 272.305 66.6464C272.305 69.0848 272.689 71.2082 273.457 73.0164C274.239 74.8247 275.335 76.2289 276.748 77.2289C278.174 78.2289 279.846 78.7289 281.766 78.7289C283.027 78.7289 284.172 78.5097 285.2 78.0714C286.228 77.633 287.099 77.0028 287.812 76.1809C288.525 75.359 289.032 74.3726 289.334 73.2219H294.187C293.913 75.085 293.234 76.7631 292.151 78.2563C291.082 79.7358 289.663 80.9139 287.894 81.7906C286.139 82.6537 284.096 83.0852 281.766 83.0852Z"></path><path d="M311.92 83.0852C308.877 83.0852 306.251 82.4139 304.044 81.0714C301.85 79.7152 300.157 77.8248 298.964 75.4001C297.785 72.9616 297.196 70.1259 297.196 66.893C297.196 63.66 297.785 60.8106 298.964 58.3448C300.157 55.8653 301.816 53.9337 303.941 52.5501C306.08 51.1528 308.575 50.4542 311.427 50.4542C313.072 50.4542 314.697 50.7282 316.301 51.2761C317.905 51.8241 319.365 52.7145 320.681 53.9474C321.998 55.1666 323.046 56.7831 323.828 58.7969C324.609 60.8106 325 63.2902 325 66.2354V68.2903H300.651V64.0984H320.064C320.064 62.3175 319.708 60.7284 318.995 59.3311C318.296 57.9338 317.295 56.8311 315.992 56.0228C314.704 55.2146 313.182 54.8105 311.427 54.8105C309.494 54.8105 307.821 55.2899 306.409 56.2489C305.01 57.1941 303.934 58.427 303.18 59.9476C302.426 61.4682 302.049 63.0984 302.049 64.8381V67.6327C302.049 70.0164 302.46 72.037 303.283 73.6945C304.119 75.3384 305.278 76.5919 306.758 77.4549C308.239 78.3042 309.96 78.7289 311.92 78.7289C313.196 78.7289 314.347 78.5508 315.375 78.1947C316.417 77.8248 317.315 77.2768 318.07 76.5508C318.824 75.811 319.406 74.8932 319.818 73.7973L324.507 75.1124C324.013 76.7015 323.184 78.0988 322.018 79.3043C320.853 80.4961 319.413 81.4276 317.699 82.0989C315.986 82.7564 314.059 83.0852 311.92 83.0852Z"></path></mask><path d="M202.759 58.016L198.399 59.2489C198.125 58.5229 197.721 57.8174 197.186 57.1325C196.665 56.4338 195.952 55.8584 195.047 55.4064C194.142 54.9543 192.984 54.7283 191.571 54.7283C189.638 54.7283 188.027 55.1735 186.739 56.0639C185.463 56.9407 184.826 58.0571 184.826 59.4133C184.826 60.6188 185.265 61.5709 186.142 62.2696C187.02 62.9682 188.391 63.5504 190.255 64.0162L194.944 65.1669C197.769 65.8519 199.873 66.8998 201.258 68.3108C202.643 69.7081 203.335 71.5095 203.335 73.7151C203.335 75.5234 202.814 77.1398 201.772 78.5645C200.744 79.9892 199.304 81.1125 197.453 81.9345C195.602 82.7564 193.45 83.1674 190.996 83.1674C187.774 83.1674 185.107 82.4687 182.996 81.0714C180.884 79.6741 179.547 77.633 178.985 74.948L183.592 73.7973C184.031 75.496 184.86 76.77 186.08 77.6193C187.314 78.4686 188.925 78.8933 190.913 78.8933C193.176 78.8933 194.972 78.4138 196.302 77.4549C197.645 76.4823 198.317 75.3179 198.317 73.9617C198.317 72.8657 197.933 71.9479 197.165 71.2082C196.398 70.4547 195.218 69.8931 193.628 69.5232L188.363 68.2903C185.47 67.6053 183.345 66.5437 181.988 65.1053C180.644 63.6532 179.972 61.8381 179.972 59.6599C179.972 57.879 180.473 56.3037 181.474 54.9338C182.488 53.5639 183.866 52.4885 185.607 51.7076C187.362 50.9268 189.35 50.5364 191.571 50.5364C194.697 50.5364 197.152 51.2213 198.934 52.5912C200.73 53.9611 202.005 55.7694 202.759 58.016Z" fill="#111111"></path><path d="M206.849 94.2636V50.8652H211.538V55.879H212.114C212.47 55.331 212.964 54.6324 213.595 53.783C214.239 52.92 215.158 52.1529 216.35 51.4816C217.557 50.7967 219.188 50.4542 221.245 50.4542C223.905 50.4542 226.249 51.1186 228.278 52.4474C230.308 53.7762 231.891 55.6598 233.029 58.0982C234.167 60.5367 234.736 63.4134 234.736 66.7286C234.736 70.0712 234.167 72.9685 233.029 75.4206C231.891 77.859 230.314 79.7495 228.299 81.092C226.284 82.4208 223.96 83.0852 221.327 83.0852C219.298 83.0852 217.673 82.7496 216.453 82.0783C215.233 81.3934 214.294 80.6194 213.636 79.7563C212.978 78.8796 212.47 78.1536 212.114 77.5782H211.703V94.2636H206.849ZM211.62 66.6464C211.62 69.03 211.97 71.1328 212.669 72.9548C213.368 74.7631 214.39 76.1809 215.733 77.2083C217.077 78.2221 218.722 78.7289 220.669 78.7289C222.698 78.7289 224.392 78.1947 225.749 77.1261C227.12 76.0439 228.148 74.5918 228.834 72.7699C229.533 70.9342 229.883 68.893 229.883 66.6464C229.883 64.4272 229.54 62.4271 228.854 60.6462C228.182 58.8517 227.161 57.4338 225.79 56.3927C224.433 55.3379 222.726 54.8105 220.669 54.8105C218.695 54.8105 217.036 55.3105 215.692 56.3105C214.349 57.2968 213.334 58.6804 212.649 60.4613C211.963 62.2285 211.62 64.2902 211.62 66.6464Z" fill="#111111"></path><path d="M248.641 83.1674C246.64 83.1674 244.823 82.7907 243.192 82.0372C241.56 81.2701 240.264 80.1673 239.305 78.7289C238.345 77.2768 237.865 75.5234 237.865 73.4685C237.865 71.6602 238.222 70.1944 238.935 69.0711C239.647 67.9341 240.6 67.0437 241.793 66.3998C242.986 65.756 244.302 65.2765 245.742 64.9614C247.195 64.6327 248.655 64.3724 250.122 64.1806C252.042 63.934 253.598 63.7491 254.791 63.6258C255.997 63.4888 256.875 63.2627 257.423 62.9477C257.985 62.6326 258.266 62.0846 258.266 61.3038V61.1394C258.266 59.112 257.711 57.5366 256.6 56.4133C255.504 55.2899 253.838 54.7283 251.603 54.7283C249.286 54.7283 247.469 55.2351 246.153 56.2489C244.837 57.2626 243.911 58.3448 243.377 59.4955L238.77 57.8516C239.593 55.9338 240.689 54.4406 242.06 53.3721C243.445 52.2899 244.953 51.5364 246.585 51.1117C248.23 50.6734 249.848 50.4542 251.438 50.4542C252.453 50.4542 253.618 50.5775 254.935 50.8241C256.264 51.0569 257.546 51.5433 258.78 52.283C260.028 53.0228 261.063 54.1392 261.886 55.6324C262.708 57.1256 263.12 59.1257 263.12 61.6326V82.4276H258.266V78.1536H258.019C257.69 78.8385 257.142 79.5714 256.374 80.3522C255.606 81.1331 254.585 81.7975 253.31 82.3455C252.035 82.8934 250.479 83.1674 248.641 83.1674ZM249.382 78.8111C251.301 78.8111 252.919 78.4344 254.235 77.6809C255.565 76.9275 256.566 75.9549 257.238 74.7631C257.923 73.5712 258.266 72.3178 258.266 71.0027V66.5642C258.06 66.8108 257.608 67.0368 256.909 67.2423C256.223 67.4341 255.428 67.6053 254.523 67.756C253.632 67.893 252.761 68.0163 251.911 68.1259C251.075 68.2218 250.396 68.304 249.875 68.3725C248.614 68.5369 247.435 68.804 246.338 69.1739C245.255 69.53 244.378 70.0712 243.706 70.7972C243.048 71.5095 242.719 72.4822 242.719 73.7151C242.719 75.4001 243.342 76.6741 244.59 77.5371C245.851 78.3864 247.449 78.8111 249.382 78.8111Z" fill="#111111"></path><path d="M281.766 83.0852C278.804 83.0852 276.254 82.3865 274.115 80.9893C271.976 79.592 270.331 77.6672 269.18 75.2151C268.028 72.763 267.452 69.9616 267.452 66.8108C267.452 63.6052 268.042 60.7764 269.221 58.3243C270.413 55.8584 272.072 53.9337 274.197 52.5501C276.336 51.1528 278.832 50.4542 281.683 50.4542C283.904 50.4542 285.906 50.8652 287.688 51.6871C289.471 52.509 290.931 53.6598 292.069 55.1392C293.207 56.6187 293.913 58.3448 294.187 60.3175H289.334C288.964 58.8791 288.141 57.6051 286.866 56.4954C285.605 55.3721 283.904 54.8105 281.766 54.8105C279.874 54.8105 278.215 55.3036 276.789 56.29C275.377 57.2626 274.273 58.6393 273.478 60.4202C272.696 62.1874 272.305 64.2628 272.305 66.6464C272.305 69.0848 272.689 71.2082 273.457 73.0164C274.239 74.8247 275.335 76.2289 276.748 77.2289C278.174 78.2289 279.846 78.7289 281.766 78.7289C283.027 78.7289 284.172 78.5097 285.2 78.0714C286.228 77.633 287.099 77.0028 287.812 76.1809C288.525 75.359 289.032 74.3726 289.334 73.2219H294.187C293.913 75.085 293.234 76.7631 292.151 78.2563C291.082 79.7358 289.663 80.9139 287.894 81.7906C286.139 82.6537 284.096 83.0852 281.766 83.0852Z" fill="#111111"></path><path d="M311.92 83.0852C308.877 83.0852 306.251 82.4139 304.044 81.0714C301.85 79.7152 300.157 77.8248 298.964 75.4001C297.785 72.9616 297.196 70.1259 297.196 66.893C297.196 63.66 297.785 60.8106 298.964 58.3448C300.157 55.8653 301.816 53.9337 303.941 52.5501C306.08 51.1528 308.575 50.4542 311.427 50.4542C313.072 50.4542 314.697 50.7282 316.301 51.2761C317.905 51.8241 319.365 52.7145 320.681 53.9474C321.998 55.1666 323.046 56.7831 323.828 58.7969C324.609 60.8106 325 63.2902 325 66.2354V68.2903H300.651V64.0984H320.064C320.064 62.3175 319.708 60.7284 318.995 59.3311C318.296 57.9338 317.295 56.8311 315.992 56.0228C314.704 55.2146 313.182 54.8105 311.427 54.8105C309.494 54.8105 307.821 55.2899 306.409 56.2489C305.01 57.1941 303.934 58.427 303.18 59.9476C302.426 61.4682 302.049 63.0984 302.049 64.8381V67.6327C302.049 70.0164 302.46 72.037 303.283 73.6945C304.119 75.3384 305.278 76.5919 306.758 77.4549C308.239 78.3042 309.96 78.7289 311.92 78.7289C313.196 78.7289 314.347 78.5508 315.375 78.1947C316.417 77.8248 317.315 77.2768 318.07 76.5508C318.824 75.811 319.406 74.8932 319.818 73.7973L324.507 75.1124C324.013 76.7015 323.184 78.0988 322.018 79.3043C320.853 80.4961 319.413 81.4276 317.699 82.0989C315.986 82.7564 314.059 83.0852 311.92 83.0852Z" fill="#111111"></path><path d="M202.759 58.016L198.399 59.2489C198.125 58.5229 197.721 57.8174 197.186 57.1325C196.665 56.4338 195.952 55.8584 195.047 55.4064C194.142 54.9543 192.984 54.7283 191.571 54.7283C189.638 54.7283 188.027 55.1735 186.739 56.0639C185.463 56.9407 184.826 58.0571 184.826 59.4133C184.826 60.6188 185.265 61.5709 186.142 62.2696C187.02 62.9682 188.391 63.5504 190.255 64.0162L194.944 65.1669C197.769 65.8519 199.873 66.8998 201.258 68.3108C202.643 69.7081 203.335 71.5095 203.335 73.7151C203.335 75.5234 202.814 77.1398 201.772 78.5645C200.744 79.9892 199.304 81.1125 197.453 81.9345C195.602 82.7564 193.45 83.1674 190.996 83.1674C187.774 83.1674 185.107 82.4687 182.996 81.0714C180.884 79.6741 179.547 77.633 178.985 74.948L183.592 73.7973C184.031 75.496 184.86 76.77 186.08 77.6193C187.314 78.4686 188.925 78.8933 190.913 78.8933C193.176 78.8933 194.972 78.4138 196.302 77.4549C197.645 76.4823 198.317 75.3179 198.317 73.9617C198.317 72.8657 197.933 71.9479 197.165 71.2082C196.398 70.4547 195.218 69.8931 193.628 69.5232L188.363 68.2903C185.47 67.6053 183.345 66.5437 181.988 65.1053C180.644 63.6532 179.972 61.8381 179.972 59.6599C179.972 57.879 180.473 56.3037 181.474 54.9338C182.488 53.5639 183.866 52.4885 185.607 51.7076C187.362 50.9268 189.35 50.5364 191.571 50.5364C194.697 50.5364 197.152 51.2213 198.934 52.5912C200.73 53.9611 202.005 55.7694 202.759 58.016Z" stroke="#111111" stroke-width="0.2" mask="url(#path-4-outside-3_26_2250)"></path><path d="M206.849 94.2636V50.8652H211.538V55.879H212.114C212.47 55.331 212.964 54.6324 213.595 53.783C214.239 52.92 215.158 52.1529 216.35 51.4816C217.557 50.7967 219.188 50.4542 221.245 50.4542C223.905 50.4542 226.249 51.1186 228.278 52.4474C230.308 53.7762 231.891 55.6598 233.029 58.0982C234.167 60.5367 234.736 63.4134 234.736 66.7286C234.736 70.0712 234.167 72.9685 233.029 75.4206C231.891 77.859 230.314 79.7495 228.299 81.092C226.284 82.4208 223.96 83.0852 221.327 83.0852C219.298 83.0852 217.673 82.7496 216.453 82.0783C215.233 81.3934 214.294 80.6194 213.636 79.7563C212.978 78.8796 212.47 78.1536 212.114 77.5782H211.703V94.2636H206.849ZM211.62 66.6464C211.62 69.03 211.97 71.1328 212.669 72.9548C213.368 74.7631 214.39 76.1809 215.733 77.2083C217.077 78.2221 218.722 78.7289 220.669 78.7289C222.698 78.7289 224.392 78.1947 225.749 77.1261C227.12 76.0439 228.148 74.5918 228.834 72.7699C229.533 70.9342 229.883 68.893 229.883 66.6464C229.883 64.4272 229.54 62.4271 228.854 60.6462C228.182 58.8517 227.161 57.4338 225.79 56.3927C224.433 55.3379 222.726 54.8105 220.669 54.8105C218.695 54.8105 217.036 55.3105 215.692 56.3105C214.349 57.2968 213.334 58.6804 212.649 60.4613C211.963 62.2285 211.62 64.2902 211.62 66.6464Z" stroke="#111111" stroke-width="0.2" mask="url(#path-4-outside-3_26_2250)"></path><path d="M248.641 83.1674C246.64 83.1674 244.823 82.7907 243.192 82.0372C241.56 81.2701 240.264 80.1673 239.305 78.7289C238.345 77.2768 237.865 75.5234 237.865 73.4685C237.865 71.6602 238.222 70.1944 238.935 69.0711C239.647 67.9341 240.6 67.0437 241.793 66.3998C242.986 65.756 244.302 65.2765 245.742 64.9614C247.195 64.6327 248.655 64.3724 250.122 64.1806C252.042 63.934 253.598 63.7491 254.791 63.6258C255.997 63.4888 256.875 63.2627 257.423 62.9477C257.985 62.6326 258.266 62.0846 258.266 61.3038V61.1394C258.266 59.112 257.711 57.5366 256.6 56.4133C255.504 55.2899 253.838 54.7283 251.603 54.7283C249.286 54.7283 247.469 55.2351 246.153 56.2489C244.837 57.2626 243.911 58.3448 243.377 59.4955L238.77 57.8516C239.593 55.9338 240.689 54.4406 242.06 53.3721C243.445 52.2899 244.953 51.5364 246.585 51.1117C248.23 50.6734 249.848 50.4542 251.438 50.4542C252.453 50.4542 253.618 50.5775 254.935 50.8241C256.264 51.0569 257.546 51.5433 258.78 52.283C260.028 53.0228 261.063 54.1392 261.886 55.6324C262.708 57.1256 263.12 59.1257 263.12 61.6326V82.4276H258.266V78.1536H258.019C257.69 78.8385 257.142 79.5714 256.374 80.3522C255.606 81.1331 254.585 81.7975 253.31 82.3455C252.035 82.8934 250.479 83.1674 248.641 83.1674ZM249.382 78.8111C251.301 78.8111 252.919 78.4344 254.235 77.6809C255.565 76.9275 256.566 75.9549 257.238 74.7631C257.923 73.5712 258.266 72.3178 258.266 71.0027V66.5642C258.06 66.8108 257.608 67.0368 256.909 67.2423C256.223 67.4341 255.428 67.6053 254.523 67.756C253.632 67.893 252.761 68.0163 251.911 68.1259C251.075 68.2218 250.396 68.304 249.875 68.3725C248.614 68.5369 247.435 68.804 246.338 69.1739C245.255 69.53 244.378 70.0712 243.706 70.7972C243.048 71.5095 242.719 72.4822 242.719 73.7151C242.719 75.4001 243.342 76.6741 244.59 77.5371C245.851 78.3864 247.449 78.8111 249.382 78.8111Z" stroke="#111111" stroke-width="0.2" mask="url(#path-4-outside-3_26_2250)"></path><path d="M281.766 83.0852C278.804 83.0852 276.254 82.3865 274.115 80.9893C271.976 79.592 270.331 77.6672 269.18 75.2151C268.028 72.763 267.452 69.9616 267.452 66.8108C267.452 63.6052 268.042 60.7764 269.221 58.3243C270.413 55.8584 272.072 53.9337 274.197 52.5501C276.336 51.1528 278.832 50.4542 281.683 50.4542C283.904 50.4542 285.906 50.8652 287.688 51.6871C289.471 52.509 290.931 53.6598 292.069 55.1392C293.207 56.6187 293.913 58.3448 294.187 60.3175H289.334C288.964 58.8791 288.141 57.6051 286.866 56.4954C285.605 55.3721 283.904 54.8105 281.766 54.8105C279.874 54.8105 278.215 55.3036 276.789 56.29C275.377 57.2626 274.273 58.6393 273.478 60.4202C272.696 62.1874 272.305 64.2628 272.305 66.6464C272.305 69.0848 272.689 71.2082 273.457 73.0164C274.239 74.8247 275.335 76.2289 276.748 77.2289C278.174 78.2289 279.846 78.7289 281.766 78.7289C283.027 78.7289 284.172 78.5097 285.2 78.0714C286.228 77.633 287.099 77.0028 287.812 76.1809C288.525 75.359 289.032 74.3726 289.334 73.2219H294.187C293.913 75.085 293.234 76.7631 292.151 78.2563C291.082 79.7358 289.663 80.9139 287.894 81.7906C286.139 82.6537 284.096 83.0852 281.766 83.0852Z" stroke="#111111" stroke-width="0.2" mask="url(#path-4-outside-3_26_2250)"></path><path d="M311.92 83.0852C308.877 83.0852 306.251 82.4139 304.044 81.0714C301.85 79.7152 300.157 77.8248 298.964 75.4001C297.785 72.9616 297.196 70.1259 297.196 66.893C297.196 63.66 297.785 60.8106 298.964 58.3448C300.157 55.8653 301.816 53.9337 303.941 52.5501C306.08 51.1528 308.575 50.4542 311.427 50.4542C313.072 50.4542 314.697 50.7282 316.301 51.2761C317.905 51.8241 319.365 52.7145 320.681 53.9474C321.998 55.1666 323.046 56.7831 323.828 58.7969C324.609 60.8106 325 63.2902 325 66.2354V68.2903H300.651V64.0984H320.064C320.064 62.3175 319.708 60.7284 318.995 59.3311C318.296 57.9338 317.295 56.8311 315.992 56.0228C314.704 55.2146 313.182 54.8105 311.427 54.8105C309.494 54.8105 307.821 55.2899 306.409 56.2489C305.01 57.1941 303.934 58.427 303.18 59.9476C302.426 61.4682 302.049 63.0984 302.049 64.8381V67.6327C302.049 70.0164 302.46 72.037 303.283 73.6945C304.119 75.3384 305.278 76.5919 306.758 77.4549C308.239 78.3042 309.96 78.7289 311.92 78.7289C313.196 78.7289 314.347 78.5508 315.375 78.1947C316.417 77.8248 317.315 77.2768 318.07 76.5508C318.824 75.811 319.406 74.8932 319.818 73.7973L324.507 75.1124C324.013 76.7015 323.184 78.0988 322.018 79.3043C320.853 80.4961 319.413 81.4276 317.699 82.0989C315.986 82.7564 314.059 83.0852 311.92 83.0852Z" stroke="#111111" stroke-width="0.2" mask="url(#path-4-outside-3_26_2250)"></path></svg> 